<svg xmlns="http://www.w3.org/2000/svg" id="_レイヤー_2" data-name="レイヤー 2" viewBox="0 0 200 80">
  <defs>
    <clipPath id="clippath">
      <path d="M-3.96 15h50v50h-50z" class="cls-2"/>
    </clipPath>
    <clipPath id="clippath-1">
      <path d="M-3.96 15h50v50h-50z" class="cls-2"/>
    </clipPath>
    <clipPath id="clippath-2">
      <path d="M4.7 21.77h35.4v36.81H4.7z" class="cls-2"/>
    </clipPath>
    <clipPath id="clippath-3">
      <path d="M4.7 21.77h35.4v36.81H4.7z" class="cls-2"/>
    </clipPath>
    <style>
      .cls-2{fill:none}
    </style>
  </defs>
  <g style="clip-path:url(#clippath)">
    <g style="clip-path:url(#clippath-1)">
      <g style="clip-path:url(#clippath-2)">
        <g style="clip-path:url(#clippath-3)">
          <path d="m22.41 48.39 2.92 10.19-19.51-7.1 8.79-5.93a8.399 8.399 0 0 0 3.53 2.43 8.392 8.392 0 0 0 4.27.41" style="fill:#b78f00"/>
          <path d="M40.03 41.67 27.25 58.03l-2.92-10.19c.1-.04.2-.09.3-.13a8.445 8.445 0 0 0 4.4-4.8c.19-.53.33-1.07.41-1.61l10.59.37Z" style="fill:#197a4b"/>
          <path d="m40.1 39.67-10.58-.37c-.08-.99-.34-1.96-.77-2.89-.82-1.75-2.17-3.15-3.88-4l3.62-9.95L40.1 39.67Z" style="fill:#3460fb"/>
          <path d="m26.61 21.77-3.62 9.95c-2.93-.69-5.94.24-7.98 2.29l-8.35-6.52 19.96-5.72Z" style="fill:#a565f8"/>
          <path d="m5.42 29.07 8.35 6.52c-.28.47-.52.97-.72 1.5-.78 2.13-.68 4.44.28 6.5l.15.3-8.79 5.93.73-20.75Z" style="fill:#fb5b01"/>
        </g>
      </g>
    </g>
  </g>
  <path d="m41.4 53.27 8.93-26.39h3.71L63 53.27h-3.53l-4.61-14.76c-.48-1.51-.94-2.99-1.37-4.45-.43-1.45-.86-2.95-1.3-4.48h-.14c-.41 1.54-.83 3.03-1.28 4.48-.44 1.45-.89 2.93-1.35 4.45l-4.68 14.76h-3.35Zm4.64-8.07v-2.63h12.17v2.63H46.04ZM71.56 53.74c-1.37 0-2.69-.26-3.98-.77-1.28-.52-2.38-1.16-3.29-1.93l1.58-2.2c.86.7 1.75 1.26 2.66 1.69s1.96.65 3.13.65c1.3 0 2.26-.29 2.9-.88.64-.59.95-1.31.95-2.18 0-.67-.22-1.23-.67-1.67-.44-.44-1.01-.83-1.69-1.15-.68-.32-1.39-.62-2.11-.88-.91-.36-1.81-.76-2.68-1.21-.88-.44-1.6-1.02-2.16-1.73s-.85-1.61-.85-2.72.26-2 .79-2.83c.53-.83 1.3-1.49 2.3-1.98 1.01-.49 2.22-.74 3.64-.74 1.2 0 2.32.22 3.37.65 1.04.43 1.94.96 2.68 1.58l-1.58 2.05c-.67-.48-1.36-.89-2.07-1.22-.71-.34-1.49-.5-2.36-.5-1.25 0-2.17.28-2.75.85-.59.56-.88 1.23-.88 2 0 .6.2 1.1.59 1.51.4.41.92.75 1.57 1.03s1.33.56 2.05.85c.72.26 1.43.55 2.14.86.71.31 1.34.68 1.91 1.12.56.43 1.02.97 1.37 1.6.35.64.52 1.42.52 2.36 0 1.06-.27 2.03-.81 2.92s-1.33 1.59-2.38 2.11c-1.04.52-2.35.77-3.91.77ZM87.8 53.74c-1.08 0-2.05-.22-2.92-.65a4.808 4.808 0 0 1-2.03-1.89c-.49-.83-.74-1.83-.74-3.01 0-2.14.95-3.77 2.86-4.91 1.91-1.14 4.95-1.94 9.13-2.39 0-.84-.11-1.64-.34-2.39-.23-.76-.63-1.37-1.21-1.84s-1.4-.7-2.48-.7-2.19.22-3.19.67c-1 .44-1.89.92-2.68 1.42l-1.26-2.27c.6-.38 1.3-.77 2.09-1.17s1.66-.73 2.59-.99 1.93-.4 2.99-.4c1.58 0 2.87.34 3.87 1.01 1 .67 1.73 1.6 2.2 2.79.47 1.19.7 2.6.7 4.23v12.02h-2.7l-.29-2.34h-.11c-.91.77-1.91 1.43-3.01 1.98-1.09.55-2.25.83-3.47.83Zm.94-2.67c.94 0 1.83-.22 2.68-.65.85-.43 1.75-1.07 2.68-1.91v-5.44c-2.18.24-3.92.58-5.22 1.03s-2.22.98-2.77 1.62c-.55.64-.83 1.39-.83 2.25 0 1.13.34 1.93 1.01 2.39s1.49.7 2.45.7ZM110.16 62.27c-1.58 0-2.99-.2-4.21-.61s-2.17-1-2.84-1.78c-.67-.78-1.01-1.72-1.01-2.83 0-.84.25-1.65.76-2.43.5-.78 1.21-1.45 2.12-2v-.18c-.5-.31-.92-.73-1.26-1.26-.34-.53-.5-1.18-.5-1.94 0-.82.23-1.54.7-2.16.47-.62.95-1.12 1.46-1.48v-.14c-.65-.5-1.24-1.21-1.76-2.12-.53-.91-.79-1.96-.79-3.13 0-1.44.34-2.68 1.01-3.73a6.772 6.772 0 0 1 2.68-2.41 7.97 7.97 0 0 1 3.62-.85c.58 0 1.1.05 1.57.14.47.1.87.22 1.21.36h6.8v2.52h-4c.48.46.86 1.03 1.15 1.73.29.7.43 1.46.43 2.3 0 1.39-.32 2.6-.95 3.62a6.424 6.424 0 0 1-2.57 2.36c-1.08.55-2.29.83-3.64.83-.46 0-.94-.06-1.46-.18s-.99-.29-1.42-.5c-.36.29-.66.61-.9.97s-.36.82-.36 1.37c0 .6.24 1.1.72 1.51.48.41 1.38.61 2.7.61h3.85c2.26 0 3.95.37 5.09 1.12 1.14.74 1.71 1.92 1.71 3.53 0 1.2-.41 2.32-1.22 3.35-.82 1.03-1.96 1.86-3.44 2.48-1.48.62-3.22.94-5.24.94Zm.46-2.27c1.25 0 2.33-.19 3.26-.58.92-.38 1.64-.88 2.16-1.49.52-.61.77-1.24.77-1.89 0-.94-.34-1.58-1.01-1.94-.67-.36-1.66-.54-2.95-.54h-3.38c-.36 0-.76-.02-1.21-.05-.44-.04-.88-.11-1.31-.23-.7.48-1.2 1.01-1.51 1.6-.31.59-.47 1.16-.47 1.71 0 1.03.5 1.86 1.49 2.48 1 .62 2.38.94 4.16.94Zm-.5-15.15c.77 0 1.47-.19 2.11-.58.64-.38 1.14-.92 1.51-1.62.37-.7.56-1.51.56-2.45s-.19-1.78-.56-2.47c-.37-.68-.87-1.21-1.49-1.57s-1.33-.54-2.12-.54c-.74 0-1.43.18-2.07.54-.64.36-1.14.88-1.51 1.55-.37.67-.56 1.5-.56 2.48s.19 1.75.58 2.45c.38.7.89 1.24 1.51 1.62.62.38 1.31.58 2.05.58ZM128.37 53.74c-1.08 0-2.05-.22-2.92-.65a4.808 4.808 0 0 1-2.03-1.89c-.49-.83-.74-1.83-.74-3.01 0-2.14.95-3.77 2.86-4.91 1.91-1.14 4.95-1.94 9.13-2.39 0-.84-.12-1.64-.34-2.39-.23-.76-.63-1.37-1.21-1.84s-1.4-.7-2.48-.7-2.19.22-3.19.67c-1 .44-1.89.92-2.68 1.42l-1.26-2.27c.6-.38 1.3-.77 2.09-1.17.79-.4 1.66-.73 2.59-.99s1.93-.4 2.99-.4c1.58 0 2.87.34 3.87 1.01 1 .67 1.73 1.6 2.2 2.79.47 1.19.7 2.6.7 4.23v12.02h-2.7l-.29-2.34h-.11c-.91.77-1.91 1.43-3.01 1.98-1.09.55-2.25.83-3.47.83Zm.94-2.67c.94 0 1.83-.22 2.68-.65.85-.43 1.75-1.07 2.68-1.91v-5.44c-2.19.24-3.92.58-5.22 1.03s-2.22.98-2.77 1.62c-.55.64-.83 1.39-.83 2.25 0 1.13.34 1.93 1.01 2.39s1.49.7 2.45.7ZM151.74 53.74c-1.58 0-3.07-.4-4.46-1.21-1.39-.8-2.5-1.97-3.33-3.49-.83-1.52-1.24-3.37-1.24-5.53s.41-4.04 1.24-5.56c.83-1.52 1.94-2.69 3.33-3.51a8.63 8.63 0 0 1 4.46-1.22c1.2 0 2.35.23 3.44.68 1.09.46 2.06 1.13 2.9 2.02.84.89 1.5 1.97 1.98 3.24s.72 2.72.72 4.36c0 2.16-.42 4-1.26 5.53-.84 1.52-1.94 2.69-3.31 3.49s-2.86 1.21-4.46 1.21Zm0-2.74c1.13 0 2.12-.31 2.97-.94.85-.62 1.52-1.5 2-2.63s.72-2.44.72-3.92-.24-2.83-.72-3.96-1.15-2-2-2.63c-.85-.62-1.84-.94-2.97-.94s-2.12.31-2.97.94c-.85.62-1.51 1.5-1.98 2.63s-.7 2.45-.7 3.96.23 2.8.7 3.92 1.13 2 1.98 2.63c.85.62 1.84.94 2.97.94ZM175.64 53.74c-1.34 0-2.59-.19-3.74-.58s-2.15-1.02-3.01-1.91c-.85-.89-1.52-2.06-2-3.53-.48-1.46-.72-3.24-.72-5.33V26.87h3.31v15.59c0 2.11.28 3.77.83 4.99.55 1.21 1.29 2.08 2.21 2.59.92.52 1.96.77 3.11.77s2.23-.26 3.17-.77c.94-.52 1.69-1.38 2.25-2.59s.85-2.87.85-4.99V26.87h3.2v15.52c0 2.09-.23 3.86-.7 5.33-.47 1.46-1.13 2.64-2 3.53-.86.89-1.87 1.52-3.02 1.91-1.15.38-2.4.58-3.74.58ZM192.23 53.27V26.88h3.31v26.39h-3.31Z"/>
</svg>
