<svg xmlns="http://www.w3.org/2000/svg" id="_レイヤー_2" data-name="レイヤー 2" viewBox="0 0 250 80">
  <defs>
    <clipPath id="clippath">
      <path d="M-4.67-5h90v90h-90z" class="cls-2"/>
    </clipPath>
    <clipPath id="clippath-1">
      <path d="M-4.67-5h90v90h-90z" class="cls-2"/>
    </clipPath>
    <clipPath id="clippath-2">
      <path d="M10.91 7.19h63.73v66.25H10.91z" class="cls-2"/>
    </clipPath>
    <clipPath id="clippath-3">
      <path d="M10.91 7.19h63.73v66.25H10.91z" class="cls-2"/>
    </clipPath>
    <style>
      .cls-2{fill:none}
    </style>
  </defs>
  <g style="clip-path:url(#clippath)">
    <g style="clip-path:url(#clippath-1)">
      <g style="clip-path:url(#clippath-2)">
        <g style="clip-path:url(#clippath-3)">
          <path d="m42.79 55.11 5.25 18.34-35.12-12.78L28.73 50c1.69 1.97 3.86 3.47 6.36 4.38 1.71.62 3.48.93 5.24.93.82 0 1.64-.07 2.45-.2" style="fill:#b78f00"/>
          <path d="M74.52 43 51.51 72.45l-5.26-18.34c.18-.08.37-.16.55-.24 3.7-1.73 6.51-4.79 7.91-8.63.35-.95.6-1.92.75-2.9l19.06.67Z" style="fill:#197a4b"/>
          <path d="m74.64 39.41-19.05-.67c-.15-1.78-.61-3.54-1.39-5.2a15.152 15.152 0 0 0-6.98-7.2l6.52-17.91 20.9 30.98Z" style="fill:#3460fb"/>
          <path d="M50.36 7.19 43.84 25.1c-5.27-1.24-10.7.43-14.37 4.12L14.44 17.48 50.36 7.19Z" style="fill:#a565f8"/>
          <path d="m12.22 20.33 15.03 11.74c-.51.84-.94 1.74-1.29 2.7a15.18 15.18 0 0 0 .51 11.7c.08.18.17.36.27.54L10.92 57.68l1.31-37.35Z" style="fill:#fb5b01"/>
        </g>
      </g>
    </g>
  </g>
  <text style="font-family:NotoSansJP-Regular,&quot;Noto Sans JP&quot;;font-size:36px" transform="translate(83.51 51.55)"><tspan x="0" y="0">AsagaoUI</tspan></text>
</svg>
