<svg xmlns="http://www.w3.org/2000/svg" viewBox="0 0 500 500">
  <path d="m263.65 333.93 29.19 101.87-195.1-71 87.86-59.28c9.37 10.92 21.43 19.3 35.33 24.35 9.49 3.46 19.32 5.17 29.12 5.17 4.55 0 9.09-.37 13.6-1.11Z" style="fill:#b78f00"/>
  <path d="M439.9 266.68 312.07 430.29l-29.2-101.91c1.02-.42 2.04-.87 3.05-1.34 20.58-9.6 36.19-26.63 43.95-47.97a84.8 84.8 0 0 0 4.15-16.11l105.88 3.72Z" style="fill:#197a4b"/>
  <path d="m440.59 246.7-105.84-3.73c-.82-9.88-3.4-19.64-7.71-28.89-8.18-17.53-21.74-31.45-38.77-39.99l36.22-99.52 116.1 172.13Z" style="fill:#3460fb"/>
  <path d="m305.7 67.74-36.23 99.52c-29.26-6.91-59.44 2.39-79.84 22.91l-83.51-65.21L305.7 67.74Z" style="fill:#a565f8"/>
  <path d="m93.81 140.72 83.5 65.21a85.283 85.283 0 0 0-7.18 15c-7.77 21.33-6.76 44.41 2.83 64.99.47 1.01.96 2.01 1.48 3l-87.88 59.29 7.25-207.49Z" style="fill:#fb5b01"/>
</svg>
