<svg xmlns="http://www.w3.org/2000/svg" height="24px" viewBox="0 0 24 24" width="24px" fill="#1f1f1f"><path d="M12 22a2.4 2.4 0 0 1-1.765-.735A2.4 2.4 0 0 1 9.5 19.5q0-1.031.735-1.765A2.4 2.4 0 0 1 12 17q1.031 0 1.765.735.735.734.735 1.765t-.735 1.765T12 22m0-7.5a2.4 2.4 0 0 1-1.765-.735A2.4 2.4 0 0 1 9.5 12q0-1.031.735-1.765A2.4 2.4 0 0 1 12 9.5q1.031 0 1.765.735.735.734.735 1.765t-.735 1.765T12 14.5M12 7a2.4 2.4 0 0 1-1.765-.735A2.4 2.4 0 0 1 9.5 4.5q0-1.031.735-1.765A2.4 2.4 0 0 1 12 2q1.031 0 1.765.735.735.734.735 1.765t-.735 1.765Q13.031 7 12 7"/></svg>