<svg width="24" height="24" viewBox="0 0 24 24" fill="none" xmlns="http://www.w3.org/2000/svg">
<g clip-path="url(#clip0_320_618)">
<path fill-rule="evenodd" clip-rule="evenodd" d="M2.5 7.5H4V4H7.5V2.5H2.5V7.5ZM2.5 21.5H7.5V20H4V16.5H2.5V21.5ZM21.5 21.5H16.5V20H20V16.5H21.5V21.5ZM20 7.5H21.5V2.5H16.5V4H20V7.5ZM9.5 7.5V9.5H7.5V7.5H9.5ZM11 6H6V11H11V6ZM16.5 9.5V7.5H14.5V9.5H16.5ZM13 6H18V11H13V6ZM9.5 14.5V16.5H7.5V14.5H9.5ZM11 13H6V18H11V13ZM13 13H18V18H13V13Z" fill="#1A1A1C"/>
</g>
<defs>
<clipPath id="clip0_320_618">
<rect width="24" height="24" fill="white"/>
</clipPath>
</defs>
</svg>
