<?xml version="1.0" encoding="utf-8"?><svg xmlns="http://www.w3.org/2000/svg" xmlns:xlink="http://www.w3.org/1999/xlink"><symbol fill="none" viewBox="0 0 24 24" id="add_fill" xmlns="http://www.w3.org/2000/svg"><g clip-path="url(#aaa)"><path d="M13 11V2.8h-2V11H2.8v2H11v8.2h2V13h8.2v-2H13Z" fill="#1A1A1C"/></g><defs><clipPath id="aaa"><path fill="#fff" d="M0 0h24v24H0z"/></clipPath></defs></symbol><symbol fill="none" viewBox="0 0 24 24" id="add_line" xmlns="http://www.w3.org/2000/svg"><g clip-path="url(#aba)"><path d="M21 11.2h-8.3V3h-1.5v8.2H3v1.5h8.2V21h1.5v-8.3H21v-1.5Z" fill="#1A1A1C"/></g><defs><clipPath id="aba"><path fill="#fff" d="M0 0h24v24H0z"/></clipPath></defs></symbol><symbol fill="none" viewBox="0 0 24 24" id="application_fill" xmlns="http://www.w3.org/2000/svg"><g clip-path="url(#aca)"><path d="M4 22h16V5.2L16.7 2H4v20Zm7.3-2.2-2.9-2.6.9-1 2 1.8 3.3-3.1.9 1-4.2 3.9Zm4.6-16.5 3 3h-3v-3ZM7 8.2h10v1.5H7V8.2Zm0 3.5h10v1.5H7v-1.5Z" fill="#1A1A1C"/></g><defs><clipPath id="aca"><path fill="#fff" d="M0 0h24v24H0z"/></clipPath></defs></symbol><symbol fill="none" viewBox="0 0 24 24" id="application_line" xmlns="http://www.w3.org/2000/svg"><g clip-path="url(#ada)"><path fill-rule="evenodd" clip-rule="evenodd" d="M4 2h12.7L20 5.2V22H4V2Zm1.5 1.5v17h13v-14h-3v-3h-10ZM7 11h10v1.5H7V11Zm10-3H7v1.5h10V8Zm-7.602 7.2 1.9 1.7 3.3-3 1 1.2-4.3 3.9-2.9-2.7 1-1.1Z" fill="#1A1A1C"/></g><defs><clipPath id="ada"><path fill="#fff" d="M0 0h24v24H0z"/></clipPath></defs></symbol><symbol fill="none" viewBox="0 0 24 24" id="arrival_fill" xmlns="http://www.w3.org/2000/svg"><g clip-path="url(#aea)"><path fill-rule="evenodd" clip-rule="evenodd" d="M19.1 14.2c-1.3-.1-2.4-.5-4.2-1.2-1.6-.6-10.6-4.1-10.6-4.2-1.1-.4-2.5-1.5-2.5-3.1V2.9l1.9.8.7 2.2 3.4 1 .6-5.8 2.4 1 1.5 6.1c1.357.413 2.156.686 2.79.903.44.15.8.274 1.21.397 1.8.7 3.1 1.7 3.7 3 .4.8.1 1.7-.9 1.7Zm-10.4 5h13.5v2H8.7v-2Z" fill="#1A1A1C"/></g><defs><clipPath id="aea"><path fill="#fff" d="M0 0h24v24H0z"/></clipPath></defs></symbol><symbol fill="none" viewBox="0 0 24 24" id="arrival_line" xmlns="http://www.w3.org/2000/svg"><g clip-path="url(#afa)"><path fill-rule="evenodd" clip-rule="evenodd" d="M18.3 10.9c.6.5 1.1 1.1 1.5 1.8.375.75.047 1.06-.078 1.179l-.022.021c-.1.1-.3.1-.5.1-.5 0-1.1-.2-1.2-.3l-13.6-5C3.3 8.3 2 7.3 2 5.8V3.3l1.5.6.7 2.1L8 7.2l.6-5.6 2 .9 1.5 6.1c2.3.7 3.8 1.2 4.1 1.3 1 .3 1.4.5 2.1 1ZM9 19.5h13V21H9v-1.5Z" fill="#1A1A1C"/></g><defs><clipPath id="afa"><path fill="#fff" d="M0 0h24v24H0z"/></clipPath></defs></symbol><symbol fill="none" viewBox="0 0 24 24" id="arrow_down_fill" xmlns="http://www.w3.org/2000/svg"><g clip-path="url(#aga)"><path d="m20.002 6.6-8 8-8-8-1.4 1.4 9.4 9.4 9.4-9.4-1.4-1.4Z" fill="#1A1A1C"/></g><defs><clipPath id="aga"><path fill="#fff" d="M0 0h24v24H0z"/></clipPath></defs></symbol><symbol fill="none" viewBox="0 0 24 24" id="arrow_down_line" xmlns="http://www.w3.org/2000/svg"><g clip-path="url(#aha)"><path d="M12 17.1 3 8l1-1 8 8 8-8 1 1-9 9.1Z" fill="#1A1A1C"/></g><defs><clipPath id="aha"><path fill="#fff" d="M0 0h24v24H0z"/></clipPath></defs></symbol><symbol fill="none" viewBox="0 0 24 24" id="arrow_left_fill" xmlns="http://www.w3.org/2000/svg"><g clip-path="url(#aia)"><path d="m7.902 12 8-8-1.4-1.4-9.4 9.4 9.4 9.4 1.4-1.4-8-8Z" fill="#1A1A1C"/></g><defs><clipPath id="aia"><path fill="#fff" d="M0 0h24v24H0z"/></clipPath></defs></symbol><symbol fill="none" viewBox="0 0 24 24" id="arrow_left_line" xmlns="http://www.w3.org/2000/svg"><g clip-path="url(#aja)"><path d="m14.498 21-9.1-9 9.1-9 1 1-7.9 8 7.9 8-1 1Z" fill="#1A1A1C"/></g><defs><clipPath id="aja"><path fill="#fff" d="M0 0h24v24H0z"/></clipPath></defs></symbol><symbol fill="none" viewBox="0 0 24 24" id="arrow_right_fill" xmlns="http://www.w3.org/2000/svg"><g clip-path="url(#aka)"><path d="M9.002 2.6 7.602 4l8 8-8 8 1.4 1.4 9.4-9.4-9.4-9.4Z" fill="#1A1A1C"/></g><defs><clipPath id="aka"><path fill="#fff" d="M0 0h24v24H0z"/></clipPath></defs></symbol><symbol fill="none" viewBox="0 0 24 24" id="arrow_right_line" xmlns="http://www.w3.org/2000/svg"><g clip-path="url(#ala)"><path d="m9 21-1-1 8-8-8-8 1-1 9.1 9L9 21Z" fill="#1A1A1C"/></g><defs><clipPath id="ala"><path fill="#fff" d="M0 0h24v24H0z"/></clipPath></defs></symbol><symbol fill="none" viewBox="0 0 24 24" id="arrow_up_fill" xmlns="http://www.w3.org/2000/svg"><g clip-path="url(#ama)"><path d="m12.002 6.1-9.4 9.4 1.4 1.4 8-8 8 8 1.4-1.4-9.4-9.4Z" fill="#1A1A1C"/></g><defs><clipPath id="ama"><path fill="#fff" d="M0 0h24v24H0z"/></clipPath></defs></symbol><symbol fill="none" viewBox="0 0 24 24" id="arrow_up_line" xmlns="http://www.w3.org/2000/svg"><path d="m4 16.5-1-1 9-9.1 9 9.1-1 1-8-7.9-8 7.9Z" fill="#1A1A1C"/></symbol><symbol fill="none" viewBox="0 0 24 24" id="attention_fill" xmlns="http://www.w3.org/2000/svg"><g clip-path="url(#aoa)"><path d="M12 22c5.5 0 10-4.5 10-10S17.5 2 12 2 2 6.5 2 12s4.5 10 10 10Zm-.7-15.5h1.5V14h-1.5V6.5Zm.7 9c.6 0 1 .4 1 1s-.4 1-1 1-1-.4-1-1 .4-1 1-1Z" fill="#1A1A1C"/></g><defs><clipPath id="aoa"><path fill="#fff" d="M0 0h24v24H0z"/></clipPath></defs></symbol><symbol fill="none" viewBox="0 0 24 24" id="attention_line" xmlns="http://www.w3.org/2000/svg"><g clip-path="url(#apa)"><path fill-rule="evenodd" clip-rule="evenodd" d="M12 22C6.5 22 2 17.5 2 12S6.5 2 12 2s10 4.5 10 10-4.5 10-10 10Zm0-18.5c-4.7 0-8.5 3.8-8.5 8.5s3.8 8.5 8.5 8.5 8.5-3.8 8.5-8.5-3.8-8.5-8.5-8.5Zm0 14a1 1 0 1 0 0-2 1 1 0 0 0 0 2Zm-.7-11h1.5V14h-1.5V6.5Z" fill="#1A1A1C"/></g><defs><clipPath id="apa"><path fill="#fff" d="M0 0h24v24H0z"/></clipPath></defs></symbol><symbol fill="none" viewBox="0 0 24 24" id="authentication_fill" xmlns="http://www.w3.org/2000/svg"><g clip-path="url(#aqa)"><path d="M12 2 3 4.9v5.7c0 4.8 3.3 9.1 8.7 11.2l.3.2.3-.1c5.4-2.1 8.7-6.4 8.7-11.2V4.9L12 2Zm-1 13.5-4-4 1.1-1.1 3 3L16 8.5l1 1.1-6 5.9Z" fill="#1A1A1C"/></g><defs><clipPath id="aqa"><path fill="#fff" d="M0 0h24v24H0z"/></clipPath></defs></symbol><symbol fill="none" viewBox="0 0 24 24" id="authentication_line" xmlns="http://www.w3.org/2000/svg"><g clip-path="url(#ara)"><path fill-rule="evenodd" clip-rule="evenodd" d="m11.7 21.9.3.1.3-.2c5.4-2.1 8.7-6.4 8.7-11.2V4.9L12 2 3 4.9v5.8c0 4.8 3.3 9.1 8.7 11.2ZM4.5 10.6V6L12 3.6 19.5 6v4.6c0 4.1-2.9 7.8-7.5 9.7-4.6-1.9-7.5-5.6-7.5-9.7Zm2.5.9 4 4 6-5.9-1.1-1.1-4.9 4.9-2.9-3L7 11.5Z" fill="#1A1A1C"/></g><defs><clipPath id="ara"><path fill="#fff" d="M0 0h24v24H0z"/></clipPath></defs></symbol><symbol fill="none" viewBox="0 0 24 24" id="bank_account_fill" xmlns="http://www.w3.org/2000/svg"><g clip-path="url(#asa)"><path fill-rule="evenodd" clip-rule="evenodd" d="M2 4h20v3H2V4Zm0 13.3V8.5h20v8.7c0 1.6-1.3 2.8-2.8 2.8H4.7C3.2 20 2 18.8 2 17.3Zm10-3.9-1.6-2.9H9.1l1.7 3H9.4v1h2v1h-2v1h2V18h1v-1.5h2v-1h-2v-1h2v-1H13l1.7-3h-1.1L12 13.4Z" fill="#1A1A1C"/></g><defs><clipPath id="asa"><path fill="#fff" d="M0 0h24v24H0z"/></clipPath></defs></symbol><symbol fill="none" viewBox="0 0 24 24" id="bank_account_line" xmlns="http://www.w3.org/2000/svg"><g clip-path="url(#ata)"><path fill-rule="evenodd" clip-rule="evenodd" d="M2 17.2V4h20v13.2c0 1.6-1.3 2.8-2.8 2.8H4.7C3.2 20 2 18.8 2 17.2ZM20.5 7V5.5h-17V7h17ZM4.7 18.5h14.5c.7 0 1.3-.6 1.3-1.2V8.5h-17v8.8c0 .6.5 1.2 1.2 1.2Zm7.3-6.1 1.6-2.9h1.2l-1.7 3h1.4v1h-2v1h2v1h-2V17h-1v-1.5h-2v-1h2v-1h-2v-1h1.4l-1.7-3h1.2l1.6 2.9Z" fill="#1A1A1C"/></g><defs><clipPath id="ata"><path fill="#fff" d="M0 0h24v24H0z"/></clipPath></defs></symbol><symbol fill="none" viewBox="0 0 24 24" id="certification_fill" xmlns="http://www.w3.org/2000/svg"><g clip-path="url(#aua)"><path d="M1.5 20h21V4h-21v16Zm11-11.9H19v1.3h-6.5V8.1Zm0 3.2H19v1.3h-6.5v-1.3Zm0 3.3H19v1.3h-6.5v-1.3ZM5 8.1h5.5v7.8H5V8.1Z" fill="#1A1A1C"/></g><defs><clipPath id="aua"><path fill="#fff" d="M0 0h24v24H0z"/></clipPath></defs></symbol><symbol fill="none" viewBox="0 0 24 24" id="certification_line" xmlns="http://www.w3.org/2000/svg"><g clip-path="url(#ava)"><path fill-rule="evenodd" clip-rule="evenodd" d="M22.5 20h-21V4h21v16ZM3 18.5h18v-13H3v13Zm6-9v5H6.5v-5H9ZM10.5 8H5v8h5.5V8Zm2 0H19v1.5h-6.5V8Zm6.5 3.2h-6.5v1.5H19v-1.5Zm-6.5 3.3H19V16h-6.5v-1.5Z" fill="#1A1A1C"/></g><defs><clipPath id="ava"><path fill="#fff" d="M0 0h24v24H0z"/></clipPath></defs></symbol><symbol fill="none" viewBox="0 0 24 24" id="certification_with_seal_fill" xmlns="http://www.w3.org/2000/svg"><g clip-path="url(#awa)"><path d="M16.7 2H4v20h16V5.2L16.7 2Zm-5.2 13.6H7v-1.3h4.5v1.3ZM15 20c-1.1 0-2-.9-2-2s.9-2 2-2 2 .9 2 2-.9 2-2 2Zm2-7.3H7v-1.3h10v1.3Zm0-3.1H7V8.3h10v1.3Zm-1.1-3.3v-3l3 3h-3Z" fill="#1A1A1C"/></g><defs><clipPath id="awa"><path fill="#fff" d="M0 0h24v24H0z"/></clipPath></defs></symbol><symbol fill="none" viewBox="0 0 24 24" id="certification_with_seal_line" xmlns="http://www.w3.org/2000/svg"><g clip-path="url(#axa)"><path fill-rule="evenodd" clip-rule="evenodd" d="M16.7 2H4v20h16V5.2L16.7 2ZM5.5 20.5v-17H16V6h2.5v14.5h-13Zm11-13h-9V9h9V7.5Zm-9 3h9V12h-9v-1.5Zm4.5 3H7.5V15H12v-1.5Zm5 3.5a2 2 0 1 1-4 0 2 2 0 0 1 4 0Z" fill="#1A1A1C"/></g><defs><clipPath id="axa"><path fill="#fff" d="M0 0h24v24H0z"/></clipPath></defs></symbol><symbol fill="none" viewBox="0 0 24 24" id="child_fill" xmlns="http://www.w3.org/2000/svg"><g clip-path="url(#aya)"><path fill-rule="evenodd" clip-rule="evenodd" d="M7.698 8.1c-1.2 0-2.5-.4-3.6-.9-.3-.1-.5-.2-.7-.3 1.8-2.9 5-4.9 8.6-4.9 4 0 7.5 2.4 9.1 5.9-2.6.7-5.4 0-7.3-1.9-.2-.2-.6-.2-.9 0-1.4 1.3-3.2 2.1-5.2 2.1Zm5.602-.8c2.3 2 5.4 2.6 8.3 1.8.2.9.4 1.9.4 2.9 0 5.5-4.5 10-10 10S2 17.5 2 12c0-1.4.3-2.8.8-4 1.4.9 3.2 1.4 4.8 1.4 2.1 0 4.1-.7 5.7-2.1Zm3.2 4.7c0-.6-.4-1-1-1s-1 .4-1 1 .4 1 1 1 1-.4 1-1Zm-1 4.4-.9-.9c-1.4 1.4-3.8 1.4-5.2 0l-.9.9c1 .9 2.2 1.4 3.5 1.4 1.3 0 2.6-.5 3.5-1.4ZM9.6 12c0-.6-.4-1-1-1s-1 .4-1 1 .4 1 1 1 1-.4 1-1Z" fill="#1A1A1C"/></g><defs><clipPath id="aya"><path fill="#fff" d="M0 0h24v24H0z"/></clipPath></defs></symbol><symbol fill="none" viewBox="0 0 24 24" id="child_line" xmlns="http://www.w3.org/2000/svg"><g clip-path="url(#aza)"><path fill-rule="evenodd" clip-rule="evenodd" d="M2 12C2 6.5 6.5 2 12 2s10 4.5 10 10-4.5 10-10 10S2 17.5 2 12Zm17.5-4C18 5.3 15.2 3.5 12 3.5c-3 0-5.6 1.6-7.2 3.9.9.4 1.8.6 2.8.6 2 0 3.8-.7 5.2-2.1.3-.3.8-.3 1.1 0C15.2 7.2 17.1 8 19 8h.5Zm-16 4c0 4.7 3.8 8.5 8.5 8.5s8.5-3.8 8.5-8.5c0-.9-.1-1.8-.4-2.6-.3.1-.7.1-1.1.1-2.1 0-4.1-.8-5.7-2.1-1.6 1.4-3.6 2.1-5.7 2.1-1.2 0-2.4-.2-3.5-.7-.4 1-.6 2.1-.6 3.2Zm6.102 0a1 1 0 1 1-2 0 1 1 0 0 1 2 0Zm5.898 1a1 1 0 1 0 0-2 1 1 0 0 0 0 2Zm-7.102 3.6 1.1-1.1c1.3 1.3 3.7 1.3 4.9-.1l1.1 1.1c-.9 1-2.2 1.5-3.5 1.5-1.3 0-2.6-.5-3.6-1.4Z" fill="#1A1A1C"/></g><defs><clipPath id="aza"><path fill="#fff" d="M0 0h24v24H0z"/></clipPath></defs></symbol><symbol fill="none" viewBox="0 0 24 24" id="code_reader_fill" xmlns="http://www.w3.org/2000/svg"><g clip-path="url(#baa)"><path fill-rule="evenodd" clip-rule="evenodd" d="M3 21V3h18v18H3Zm3-3h5v-5H6v5Zm0-7h5V6H6v5Zm12-5h-5v5h5V6Zm-5 12h5v-5h-5v5Zm1.2-10.8h2.5v2.5h-2.5V7.2Zm-7 7h2.5v2.5H7.2v-2.5Zm2.5-7H7.2v2.5h2.5V7.2Z" fill="#1A1A1C"/></g><defs><clipPath id="baa"><path fill="#fff" d="M0 0h24v24H0z"/></clipPath></defs></symbol><symbol fill="none" viewBox="0 0 24 24" id="code_reader_line" xmlns="http://www.w3.org/2000/svg"><g clip-path="url(#bba)"><path fill-rule="evenodd" clip-rule="evenodd" d="M2.5 7.5H4V4h3.5V2.5h-5v5Zm0 14h5V20H4v-3.5H2.5v5Zm19 0h-5V20H20v-3.5h1.5v5ZM20 7.5h1.5v-5h-5V4H20v3.5Zm-10.5 0v2h-2v-2h2ZM11 6H6v5h5V6Zm5.5 3.5v-2h-2v2h2ZM13 6h5v5h-5V6Zm-3.5 8.5v2h-2v-2h2ZM11 13H6v5h5v-5Zm2 0h5v5h-5v-5Z" fill="#1A1A1C"/></g><defs><clipPath id="bba"><path fill="#fff" d="M0 0h24v24H0z"/></clipPath></defs></symbol><symbol fill="none" viewBox="0 0 24 24" id="complete_fill" xmlns="http://www.w3.org/2000/svg"><g clip-path="url(#bca)"><path d="M12 2C6.5 2 2 6.5 2 12s4.5 10 10 10 10-4.5 10-10S17.5 2 12 2Zm-.8 14-4-4 1.1-1.1 3 3L16.1 9l1.1 1.1-6 5.9Z" fill="#1A1A1C"/></g><defs><clipPath id="bca"><path fill="#fff" d="M0 0h24v24H0z"/></clipPath></defs></symbol><symbol fill="none" viewBox="0 0 24 24" id="complete_line" xmlns="http://www.w3.org/2000/svg"><g clip-path="url(#bda)"><path fill-rule="evenodd" clip-rule="evenodd" d="M2 12c0 5.5 4.5 10 10 10s10-4.5 10-10S17.5 2 12 2 2 6.5 2 12Zm1.5 0c0-4.7 3.8-8.5 8.5-8.5s8.5 3.8 8.5 8.5-3.8 8.5-8.5 8.5-8.5-3.8-8.5-8.5Zm3.7 0 4 4 6-6-1.1-1-4.9 4.9-2.9-3L7.2 12Z" fill="#1A1A1C"/></g><defs><clipPath id="bda"><path fill="#fff" d="M0 0h24v24H0z"/></clipPath></defs></symbol><symbol fill="none" viewBox="0 0 24 24" id="copy_fill" xmlns="http://www.w3.org/2000/svg"><g clip-path="url(#bea)"><path fill-rule="evenodd" clip-rule="evenodd" d="M7.5 2.5H20V18H7.5V2.5ZM5.5 20h10.3v1.5H4V6.7h1.5V20Z" fill="#1A1A1C"/></g><defs><clipPath id="bea"><path fill="#fff" d="M0 0h24v24H0z"/></clipPath></defs></symbol><symbol fill="none" viewBox="0 0 24 24" id="copy_line" xmlns="http://www.w3.org/2000/svg"><g clip-path="url(#bfa)"><path fill-rule="evenodd" clip-rule="evenodd" d="M7.5 18H20V2.5H7.5V18Zm11-1.5H9V4h9.5v12.5ZM4 21.5h11.8V20H5.5V6.7H4v14.8Z" fill="#1A1A1C"/></g><defs><clipPath id="bfa"><path fill="#fff" d="M0 0h24v24H0z"/></clipPath></defs></symbol><symbol fill="none" viewBox="0 0 24 24" id="departure_fill" xmlns="http://www.w3.org/2000/svg"><g clip-path="url(#bga)"><path fill-rule="evenodd" clip-rule="evenodd" d="M18.8 4.6c.9-.1 1.7 0 2.5.2 1.1.3.9 1.1.9 1-.094.656-.89 1.049-1.32 1.26l-.08.04-13.2 6.1c-.6.3-1.3.4-1.9.4-.9 0-1.7-.2-2.2-.8l-2-2 1.9-.8 2.1 1 3.1-1.6L5 4.9l2.4-1 5.4 3.4c1.1-.6 3.3-1.7 3.7-1.9 1-.5 1.4-.7 2.3-.8ZM1.7 19.2h13.5v2H1.7v-2Z" fill="#1A1A1C"/></g><defs><clipPath id="bga"><path fill="#fff" d="M0 0h24v24H0z"/></clipPath></defs></symbol><symbol fill="none" viewBox="0 0 24 24" id="departure_line" xmlns="http://www.w3.org/2000/svg"><g clip-path="url(#bha)"><path fill-rule="evenodd" clip-rule="evenodd" d="M18.8 4.8c.8-.1 1.6 0 2.4.2.826.276.81.72.801.945L22 6c-.154.385-.724.77-1.023.973-.089.06-.154.104-.177.127L7.6 13.2c-.5.2-1.2.4-1.8.4-.7 0-1.4-.2-2-.8L2 11l1.4-.7 2.1 1L9 9.5 5.4 5l2-.8 5.4 3.3c1.3-.7 3.4-1.8 3.8-2 .9-.4 1.4-.6 2.2-.7ZM2 19.5h13V21H2v-1.5Z" fill="#1A1A1C"/></g><defs><clipPath id="bha"><path fill="#fff" d="M0 0h24v24H0z"/></clipPath></defs></symbol><symbol fill="none" viewBox="0 0 24 24" id="documents_fill" xmlns="http://www.w3.org/2000/svg"><g clip-path="url(#bia)"><path fill-rule="evenodd" clip-rule="evenodd" d="m9.6 4 2 2H22v4.5H2V4h7.6ZM2 12h20v9H2v-9Z" fill="#1A1A1C"/></g><defs><clipPath id="bia"><path fill="#fff" d="M0 0h24v24H0z"/></clipPath></defs></symbol><symbol fill="none" viewBox="0 0 24 24" id="documents_line" xmlns="http://www.w3.org/2000/svg"><g clip-path="url(#bja)"><path d="m11.6 6-2-2H2v17h20V6H11.6ZM9 5.5l2 2h9.5v3h-17v-5H9Zm-5.5 14V12h17v7.5h-17Z" fill="#1A1A1C"/></g><defs><clipPath id="bja"><path fill="#fff" d="M0 0h24v24H0z"/></clipPath></defs></symbol><symbol fill="none" viewBox="0 0 24 24" id="download_fill" xmlns="http://www.w3.org/2000/svg"><g clip-path="url(#bka)"><path fill-rule="evenodd" clip-rule="evenodd" d="m17.998 8.6 1.4 1.4-7.4 7.4-7.4-7.4 1.4-1.4 5 5V2.8h2v10.8l5-5ZM2.699 19.2h18.5v2H2.7v-2Z" fill="#1A1A1C"/></g><defs><clipPath id="bka"><path fill="#fff" d="M0 0h24v24H0z"/></clipPath></defs></symbol><symbol fill="none" viewBox="0 0 24 24" id="download_line" xmlns="http://www.w3.org/2000/svg"><g clip-path="url(#bla)"><path fill-rule="evenodd" clip-rule="evenodd" d="m18 9 1 1-7 7.1L5 10l1-1 5.2 5.2V3h1.5v11.2L18 9ZM3 21v-1.5h18V21H3Z" fill="#1A1A1C"/></g><defs><clipPath id="bla"><path fill="#fff" d="M0 0h24v24H0z"/></clipPath></defs></symbol><symbol fill="none" viewBox="0 0 24 24" id="e_application_fill" xmlns="http://www.w3.org/2000/svg"><g clip-path="url(#bma)"><path fill-rule="evenodd" clip-rule="evenodd" d="M2 4h20v4.5H2V4Zm1.6 2.2c0 .5.3.8.8.8.4 0 .7-.3.8-.8 0-.5-.3-.8-.8-.8s-.8.4-.8.8Zm2.5 0c0 .5.3.8.8.8.4 0 .7-.3.8-.8 0-.5-.3-.8-.8-.8s-.8.4-.8.8Zm2.5 0c0 .5.3.8.8.8.4 0 .7-.3.8-.8 0-.5-.3-.8-.8-.8s-.8.4-.8.8ZM22 20H2V9.5h20V20Zm-7.5-8-3.2 3-1.9-1.8-1 1.1 2.9 2.7 4.2-3.9-1-1.1Z" fill="#1A1A1C"/></g><defs><clipPath id="bma"><path fill="#fff" d="M0 0h24v24H0z"/></clipPath></defs></symbol><symbol fill="none" viewBox="0 0 24 24" id="e_application_line" xmlns="http://www.w3.org/2000/svg"><g clip-path="url(#bna)"><path fill-rule="evenodd" clip-rule="evenodd" d="M2 20V4h20v16H2ZM9.4 7c.4 0 .7-.3.7-.8 0-.4-.2-.8-.7-.8-.5 0-.8.4-.8.8 0 .5.4.8.8.8ZM6.9 7c.4 0 .7-.3.7-.8 0-.4-.2-.8-.7-.8-.5 0-.8.4-.8.8 0 .5.4.8.8.8ZM4.4 7c.4 0 .7-.3.7-.8 0-.4-.2-.8-.7-.8-.5 0-.8.4-.8.8 0 .5.4.8.8.8Zm-.9 11.5h17v-10h-17v10Zm12-6.7-4.2 4-3-2.7L9.4 12l1.9 1.7 3.2-3 1 1.1Z" fill="#1A1A1C"/></g><defs><clipPath id="bna"><path fill="#fff" d="M0 0h24v24H0z"/></clipPath></defs></symbol><symbol fill="none" viewBox="0 0 24 24" id="expenditure_fill" xmlns="http://www.w3.org/2000/svg"><g clip-path="url(#boa)"><path d="M6 8V6.5h13.5V5.3c0-1-.8-1.8-1.8-1.8h-14c-.9 0-1.7.8-1.7 1.8v13.5c0 1 .8 1.8 1.8 1.8h16.5c1 0 1.8-.8 1.8-1.8v-9c0-1-.8-1.8-1.8-1.8H6Zm8.5 5.5v1h-2v1h2v1h-2V18h-1v-1.5h-2v-1h2v-1h-2v-1h1.4l-1.7-3h1.1l1.6 2.9 1.6-2.9h1.1l-1.7 3h1.6Z" fill="#1A1A1C"/></g><defs><clipPath id="boa"><path fill="#fff" d="M0 0h24v24H0z"/></clipPath></defs></symbol><symbol fill="none" viewBox="0 0 24 24" id="expenditure_line" xmlns="http://www.w3.org/2000/svg"><g clip-path="url(#bpa)"><path fill-rule="evenodd" clip-rule="evenodd" d="M19.5 7h.7c1 0 1.8.8 1.9 1.7v10.1c0 1-.8 1.8-1.8 1.8H3.8c-1 0-1.8-.8-1.8-1.8V5.3c0-1 .8-1.8 1.7-1.8h14c1 0 1.8.8 1.8 1.8V7Zm-1.8-2H3.5v14h17V8.5H6V7h12V5h-.3ZM12 12.9l1.6-2.9h1.2l-1.7 3h1.4v1h-2v1h2v1h-2v1.5h-1V16h-2v-1h2v-1h-2v-1h1.4l-1.7-3h1.2l1.6 2.9Z" fill="#1A1A1C"/></g><defs><clipPath id="bpa"><path fill="#fff" d="M0 0h24v24H0z"/></clipPath></defs></symbol><symbol fill="none" viewBox="0 0 24 24" id="family_fill" xmlns="http://www.w3.org/2000/svg"><g clip-path="url(#bqa)"><path fill-rule="evenodd" clip-rule="evenodd" d="M7.1 7.8a2.9 2.9 0 1 0 0-5.8 2.9 2.9 0 0 0 0 5.8ZM22.497 21v-7.3c0-2.6-2.1-4.8-4.8-4.8h-1.7c-1.7 0-3.1.9-4 2.2-.8-1.3-2.3-2.2-4-2.2h-1.8c-2.6 0-4.8 2.1-4.8 4.8V21h6.9c.6-1.5 2-2.5 3.7-2.5 1.7 0 3.1 1 3.7 2.5h6.8Zm-11.3-7.7c.5-.2 1.1-.2 1.5 0 .7.3 1.2 1 1.2 1.8 0 1.1-.9 2-2 2s-2-.9-2-2c.1-.7.6-1.5 1.3-1.8ZM16.9 2c1.6 0 2.9 1.3 2.9 2.9 0 1.7-1.3 3-2.9 2.9-1.6 0-2.9-1.3-2.9-2.9C14 3.3 15.3 2 16.9 2Z" fill="#1A1A1C"/></g><defs><clipPath id="bqa"><path fill="#fff" d="M0 0h24v24H0z"/></clipPath></defs></symbol><symbol fill="none" viewBox="0 0 24 24" id="family_line" xmlns="http://www.w3.org/2000/svg"><g clip-path="url(#bra)"><path fill-rule="evenodd" clip-rule="evenodd" d="M10 5c0 1.6-1.3 2.9-2.9 2.9-1.6 0-2.9-1.4-2.9-3S5.4 2 7.1 2 10 3.4 10 5Zm-1.5-.1c0-.8-.6-1.4-1.4-1.4-.8 0-1.4.6-1.4 1.4 0 .8.6 1.5 1.4 1.5.8 0 1.4-.7 1.4-1.5Zm13.998 8.8c0-2.6-2.1-4.8-4.8-4.8h-1.7c-1.7 0-3.1.9-4 2.2-.8-1.3-2.3-2.2-4-2.2h-1.8c-2.6 0-4.8 2.1-4.8 4.8V21h1.6v-7.3c0-1.8 1.5-3.2 3.2-3.2h1.8c1.4 0 2.6.9 3 2.1h2c.5-1.2 1.6-2.1 3-2.1h1.8c1.8 0 3.2 1.5 3.2 3.2V21h1.5v-7.3Zm-10.501 4.8c-1.7 0-3.1 1-3.7 2.5h7.4c-.6-1.5-2-2.5-3.7-2.5ZM16.9 7.9c1.6 0 2.9-1.3 2.9-2.9 0-1.6-1.3-3-2.9-3C15.3 2 14 3.3 14 4.9c0 1.6 1.2 3 2.9 3Zm0-4.4c.8 0 1.4.6 1.4 1.4 0 .8-.6 1.4-1.4 1.4-.8 0-1.4-.6-1.4-1.4 0-.8.6-1.4 1.4-1.4Zm-2.9 12a2 2 0 1 1-4 0 2 2 0 0 1 4 0Z" fill="#1A1A1C"/></g><defs><clipPath id="bra"><path fill="#fff" d="M0 0h24v24H0z"/></clipPath></defs></symbol><symbol fill="none" viewBox="0 0 24 24" id="fast_track_fill" xmlns="http://www.w3.org/2000/svg"><g clip-path="url(#bsa)"><path fill-rule="evenodd" clip-rule="evenodd" d="M16.2 3.8a2 2 0 1 1-4 0 2 2 0 0 1 4 0Zm-7 1.7H1.7v2h7.5v-2Zm9.2 7.6-.2-.1c-.7-.3-1.4-.6-1.8-1v1c2.2 3 2.8 6.2 2.1 9.7l-1.9-.3c-.1-2.4-.5-3.9-1.6-5.5-.7 1.4-2.4 3.6-5 5.5L8.7 21c1.6-1.7 2.9-4.3 4-7.4V9.9c-.6.2-1.1.5-1.5.9-.4.4-.8 1-1 1.7l-.1.3-1.6-.6V12c.1-.7.4-1.5.8-2.2.6-1 1.4-1.8 2.4-2.4.7-.5 1.7-.7 2.6-.7.9 0 1.6.5 2.1 1.6.5 1.3 1.5 2.1 2.7 2.9l-.7 1.9Zm.729.255 1.219-3.281 2.156.8-1.22 3.281-2.155-.8ZM1.699 8.7h5.5v2H1.7v-2ZM5.2 12H1.7v2h3.5v-2Z" fill="#1A1A1C"/></g><defs><clipPath id="bsa"><path fill="#fff" d="M0 0h24v24H0z"/></clipPath></defs></symbol><symbol fill="none" viewBox="0 0 24 24" id="fast_track_line" xmlns="http://www.w3.org/2000/svg"><g clip-path="url(#bta)"><path fill-rule="evenodd" clip-rule="evenodd" d="M15.998 3.8a1.8 1.8 0 1 1-3.6 0 1.8 1.8 0 0 1 3.6 0ZM9 6H2v1.5h7V6Zm9.05 4.276c.247.2.475.386.752.524l-.5 1.4v.1c-.8-.4-1.6-.8-2.3-1.3v1.8c2 2.7 2.9 5.8 2.2 9.3l-1.4-.2c-.1-2.8-.6-4.1-1.9-5.8-.8 1.7-2.3 3.7-5 5.7l-1-1.1c1.6-1.8 3-4.6 3.9-7.4V9.2c-.7.1-1.4.5-1.9 1s-.9 1.1-1.1 1.8l-1.2-.4c.2-.8.4-1.5.8-2.2.6-1 1.3-1.7 2.3-2.3 1-.6 1.6-.7 2.5-.7.8 0 1.4.5 1.9 1.5.4.8.9 1.5 1.6 2.1.123.093.238.186.348.275Zm1.173 2.253 1.044-2.812 1.688.626-1.045 2.813-1.687-.627ZM2 9h5v1.5H2V9Zm3 3H2v1.5h3V12Z" fill="#1A1A1C"/></g><defs><clipPath id="bta"><path fill="#fff" d="M0 0h24v24H0z"/></clipPath></defs></symbol><symbol fill="none" viewBox="0 0 24 24" id="fillable_card_fill" xmlns="http://www.w3.org/2000/svg"><g clip-path="url(#bua)"><path fill-rule="evenodd" clip-rule="evenodd" d="M22 8.2V4.5H1.5v12h12.2L22 8.2Zm-12 1-3.5 3.5L4 10.3l1-.9 1.5 1.5L9 8.3l1 .9Zm5.5 3.7H12v-1.3h3.5v1.3ZM18 9.4h-6V8.1h6v1.3Zm1.6 2.6-7.1 7.1v1.4h1.4l7.1-7.1-1.4-1.4Zm3.5-.7-1.4 1.4-1.4-1.4 1.4-1.4 1.4 1.4Z" fill="#1A1A1C"/></g><defs><clipPath id="bua"><path fill="#fff" d="M0 0h24v24H0z"/></clipPath></defs></symbol><symbol fill="none" viewBox="0 0 24 24" id="fillable_card_line" xmlns="http://www.w3.org/2000/svg"><g clip-path="url(#bva)"><path fill-rule="evenodd" clip-rule="evenodd" d="M1 16.5h10.5V15h-9V6H20v2h1.5V4.5H1v12ZM11.5 8h7v1.5h-7V8Zm4.5 3.5h-4.5V13H16v-1.5ZM4 10.4l2.5 2.5 3.6-3.6L9 8.2l-2.5 2.6-1.4-1.5L4 10.4Zm16.5 3-7.1 7.1H12v-1.4l7.1-7.1 1.4 1.4Zm-.73-2.114 1.414-1.414 1.414 1.414-1.414 1.414-1.415-1.414Z" fill="#1A1A1C"/></g><defs><clipPath id="bva"><path fill="#fff" d="M0 0h24v24H0z"/></clipPath></defs></symbol><symbol fill="none" viewBox="0 0 24 24" id="health_fill" xmlns="http://www.w3.org/2000/svg"><g clip-path="url(#bwa)"><path d="M12 3.6c1.1-1 2.5-1.6 4-1.6 3.3 0 6 2.7 6 6 0 7.8-9.2 13.6-9.6 13.8l-.4.2-.4-.2C11.2 21.5 2 15.7 2 8c0-3.3 2.7-6 6-6 1.5 0 2.9.6 4 1.6Z" fill="#1A1A1C"/></g><defs><clipPath id="bwa"><path fill="#fff" d="M0 0h24v24H0z"/></clipPath></defs></symbol><symbol fill="none" viewBox="0 0 24 24" id="health_line" xmlns="http://www.w3.org/2000/svg"><g clip-path="url(#bxa)"><path d="M16 2c-1.5 0-2.9.6-4 1.6C10.9 2.6 9.5 2 8 2 4.7 2 2 4.7 2 8c0 7.7 9.2 13.5 9.6 13.8l.4.2.4-.2c.4-.2 9.6-6 9.6-13.8 0-3.3-2.7-6-6-6Zm-4 18.2C10.3 19 3.5 14 3.5 8c0-2.5 2-4.5 4.5-4.5 1.3 0 2.6.6 3.4 1.6l.6.7.6-.7c.9-1 2.1-1.6 3.4-1.6 2.5 0 4.5 2 4.5 4.5 0 6-6.8 11-8.5 12.2Z" fill="#1A1A1C"/></g><defs><clipPath id="bxa"><path fill="#fff" d="M0 0h24v24H0z"/></clipPath></defs></symbol><symbol fill="none" viewBox="0 0 24 24" id="help_fill" xmlns="http://www.w3.org/2000/svg"><g clip-path="url(#bya)"><path d="M12 2C6.5 2 2 6.5 2 12s4.5 10 10 10 10-4.5 10-10S17.5 2 12 2Zm0 15.5c-.6 0-1-.4-1-1s.4-1 1-1 1 .4 1 1-.4 1-1 1Zm1.9-6.2c-.8.7-1.2 1.7-1.1 2.7h-1.5c-.1-1.5.5-2.8 1.6-3.8.8-.7.7-1.4.6-1.8-.5-1.4-3-1.1-3 .5H9c0-1.8 1.7-3.2 3.4-2.9 2.7.4 3.5 3.7 1.5 5.3Z" fill="#1A1A1C"/></g><defs><clipPath id="bya"><path fill="#fff" d="M0 0h24v24H0z"/></clipPath></defs></symbol><symbol fill="none" viewBox="0 0 24 24" id="help_line" xmlns="http://www.w3.org/2000/svg"><g clip-path="url(#bza)"><path fill-rule="evenodd" clip-rule="evenodd" d="M12 22C6.5 22 2 17.5 2 12S6.5 2 12 2s10 4.5 10 10-4.5 10-10 10Zm0-18.5c-4.7 0-8.5 3.8-8.5 8.5s3.8 8.5 8.5 8.5 8.5-3.8 8.5-8.5-3.8-8.5-8.5-8.5Zm0 14a1 1 0 1 0 0-2 1 1 0 0 0 0 2Zm-.7-3.5h1.5c-.1-1 .3-2 1-2.7 2.1-1.7 1.3-5-1.4-5.3C10.7 5.7 9 7.1 9 8.9h1.5c0-1.6 2.5-1.9 3-.5.1.4.2 1.1-.6 1.8-1.1 1-1.7 2.3-1.6 3.8Z" fill="#1A1A1C"/></g><defs><clipPath id="bza"><path fill="#fff" d="M0 0h24v24H0z"/></clipPath></defs></symbol><symbol fill="none" viewBox="0 0 24 24" id="history_fill" xmlns="http://www.w3.org/2000/svg"><g clip-path="url(#caa)"><path fill-rule="evenodd" clip-rule="evenodd" d="M13.702 2.8c2.5.1 4.8 1.3 6.4 3.1 3.4 3.8 3 9.7-.9 13-1.7 1.5-3.8 2.3-6.1 2.3-2.6 0-5.1-1.1-6.9-3.1l-.2-.2 1.5-1.3.2.2c2.6 3 7.2 3.2 10.2.6 3-2.6 3.2-7.2.6-10.2-2.6-3-7.2-3.2-10.2-.6-1.4 1.2-2.2 2.9-2.4 4.8l1.9-1.9 1.5 1.4-4.4 4.3-4.3-4.3 1.4-1.4 1.9 1.9c.2-2.4 1.3-4.7 3.1-6.3 1.9-1.7 4.2-2.5 6.7-2.3Zm-1.999 10V7.3h2V12l3.4 3.3-1.4 1.4-4-3.9Z" fill="#1A1A1C"/></g><defs><clipPath id="caa"><path fill="#fff" d="M0 0h24v24H0z"/></clipPath></defs></symbol><symbol fill="none" viewBox="0 0 24 24" id="history_line" xmlns="http://www.w3.org/2000/svg"><g clip-path="url(#cba)"><path fill-rule="evenodd" clip-rule="evenodd" d="M7.2 5.2c3.7-3.3 9.4-2.9 12.7.8 3.3 3.8 2.9 9.5-.7 12.7-1.8 1.6-3.9 2.3-6 2.3-2.5 0-5-1-6.8-3l1.1-1c2.8 3.1 7.5 3.4 10.6.6 3.1-2.8 3.4-7.5.7-10.6-2.8-3.1-7.5-3.4-10.6-.6C6.6 7.8 5.7 9.9 5.7 12l2.1-2.2 1.1 1.1-4 4-3.9-4 1-1 2.2 2c0-2.5 1.1-5 3-6.7Zm4.8 7.5V7.5h1.5v4.6l3.2 3.2-1 1.1-3.7-3.7Z" fill="#1A1A1C"/></g><defs><clipPath id="cba"><path fill="#fff" d="M0 0h24v24H0z"/></clipPath></defs></symbol><symbol fill="none" viewBox="0 0 24 24" id="house_fill" xmlns="http://www.w3.org/2000/svg"><g clip-path="url(#cca)"><path d="m1 10.7.9 1.2L4 10.2v11.3h16V10.2l2.1 1.7.9-1.2L12 2 1 10.7Zm10 7.8H8.5V16H11v2.5Zm0-4.5H8.5v-2.5H11V14Zm2-2.5h2.5V14H13v-2.5Zm0 4.5h2.5v2.5H13V16Z" fill="#1A1A1C"/></g><defs><clipPath id="cca"><path fill="#fff" d="M0 0h24v24H0z"/></clipPath></defs></symbol><symbol fill="none" viewBox="0 0 24 24" id="house_line" xmlns="http://www.w3.org/2000/svg"><g clip-path="url(#cda)"><path fill-rule="evenodd" clip-rule="evenodd" d="m12 2 11 8.7-.9 1.2-1.6-1.3v10.9H19V9.4L12 4 5 9.4v12.1H3.5V10.6l-1.6 1.3-.9-1.2L12 2Zm4.5 8.5v9h-9v-9h9Zm-5.3 5.3H9V18h2.2v-2.2Zm1.6 0V18H15v-2.2h-2.2Zm0-1.5H15V12h-2.2v2.3Zm-1.5-.1V12H9v2.2h2.3Z" fill="#1A1A1C"/></g><defs><clipPath id="cda"><path fill="#fff" d="M0 0h24v24H0z"/></clipPath></defs></symbol><symbol fill="none" viewBox="0 0 24 24" id="immunization_fill" xmlns="http://www.w3.org/2000/svg"><g clip-path="url(#cea)"><path d="m18.6 6.5 1.3 1.3 1.4-1.4-3.7-3.7-1.4 1.4 1.3 1.3-1.3 1.3-4.3-4.2-1 1.1 1.3 1.3L10.1 7l3.8 3.7-.9 1-3.8-3.8-2.1 2.2 3.7 3.7-.9.9L6.2 11 3 14.1 5.9 17l-3.4 3.4 1.1 1.1L7 18.1 9.9 21l9.2-9.2 1.3 1.3 1.1-1-4.3-4.3 1.4-1.3Z" fill="#1A1A1C"/></g><defs><clipPath id="cea"><path fill="#fff" d="M0 0h24v24H0z"/></clipPath></defs></symbol><symbol fill="none" viewBox="0 0 24 24" id="immunization_line" xmlns="http://www.w3.org/2000/svg"><g clip-path="url(#cfa)"><path d="m21.5 12.1-4.3-4.3 1.3-1.3 1.3 1.3 1.4-1.4-3.7-3.7-1.4 1.4 1.3 1.3-1.3 1.3-4.3-4.2-1.1 1.1L12 4.9l-9 9.2L5.9 17l-3.4 3.4 1.1 1.1L7 18.1 9.9 21l9.2-9.2 1.3 1.3 1.1-1ZM9.9 18.9l-4.7-4.7 2-2 2.7 2.7 1.1-1.1-2.7-2.7 2-2 2.7 2.7 1.1-1.1L11.3 8l2-2 4.7 4.7-8.1 8.2Z" fill="#1A1A1C"/></g><defs><clipPath id="cfa"><path fill="#fff" d="M0 0h24v24H0z"/></clipPath></defs></symbol><symbol fill="none" viewBox="0 0 24 24" id="inbox_fill" xmlns="http://www.w3.org/2000/svg"><g clip-path="url(#cga)"><path fill-rule="evenodd" clip-rule="evenodd" d="m12 12.5-10-8h20l-10 8ZM2 6.2l10 8 10-8v13.3H2V6.2Z" fill="#1A1A1C"/></g><defs><clipPath id="cga"><path fill="#fff" d="M0 0h24v24H0z"/></clipPath></defs></symbol><symbol fill="none" viewBox="0 0 24 24" id="inbox_line" xmlns="http://www.w3.org/2000/svg"><g clip-path="url(#cha)"><path d="M2 4v16h20V4H2Zm18.4 1.5L12 11.9 3.6 5.5h16.8Zm-16.9 13V7.3l8.5 6.5 8.5-6.5v11.2h-17Z" fill="#1A1A1C"/></g><defs><clipPath id="cha"><path fill="#fff" d="M0 0h24v24H0z"/></clipPath></defs></symbol><symbol fill="none" viewBox="0 0 24 24" id="income_fill" xmlns="http://www.w3.org/2000/svg"><g clip-path="url(#cia)" fill="#1A1A1C"><path d="M13.3 13c1.4 0 2.5 1.3 2.2 2.7 3.2-.7 5.7-3.6 5.7-7 0-4-3.2-7.2-7.2-7.2S6.8 4.7 6.8 8.7c0 1.6.5 3.1 1.4 4.3h5.1Zm3.2-5v1h-2v1h2v1h-2v1h-1v-1h-2v-1h2V9h-2V8h1.4l-1.7-3h1.1L14 7.9 15.6 5h1.1L15 8h1.5Z"/><path d="M19.6 17.5H9.5v-1h3.8c.7 0 1.2-.6 1.2-1.2s-.6-1.3-1.3-1.3H5l-2.5-.8v5.5l6.9 2.4c1.1.4 2.3.5 3.5.3l7-1.2c.7-.1 1.2-.7 1.1-1.5-.1-.7-.6-1.2-1.4-1.2Z"/></g><defs><clipPath id="cia"><path fill="#fff" d="M0 0h24v24H0z"/></clipPath></defs></symbol><symbol fill="none" viewBox="0 0 24 24" id="income_line" xmlns="http://www.w3.org/2000/svg"><g clip-path="url(#cja)"><path fill-rule="evenodd" clip-rule="evenodd" d="m17.4 15.4-.8-1.3c1.8-1.1 2.9-3 2.9-5.1 0-3.3-2.7-6-6-6s-6 2.7-6 6c0 1.1.3 2.2.9 3.1l-1.3.8C6.4 11.7 6 10.4 6 9c0-4.1 3.4-7.5 7.5-7.5S21 4.9 21 9c0 2.6-1.4 5-3.6 6.4Zm-2.3-9.9-1.6 2.9-1.6-2.9h-1.2l1.7 3H11v1h2v1h-2v1h2V13h1v-1.5h2v-1h-2v-1h2v-1h-1.4l1.7-3h-1.2ZM14.9 17h3.9c1.2 0 2.2 1 2.3 2.2 0 1.1-.7 2-1.8 2.2l-5.7 1c-1.1.2-2.3.1-3.4-.3l-7.8-2.7.5-1.4 7.8 2.7c.8.3 1.7.4 2.6.2l5.7-1c.4-.1.6-.4.6-.7 0-.4-.3-.7-.7-.7h-8.2V17h2.2c.5 0 .8-.4.8-.8 0-.5-.4-.8-.8-.8H5.5l-3.2-1.2.5-1.4 3 1.1h7c1.2 0 2.2 1.1 2.2 2.3 0 .3 0 .6-.1.8Z" fill="#1A1A1C"/></g><defs><clipPath id="cja"><path fill="#fff" d="M0 0h24v24H0z"/></clipPath></defs></symbol><symbol fill="none" viewBox="0 0 24 24" id="information_fill" xmlns="http://www.w3.org/2000/svg"><g clip-path="url(#cka)"><path d="M12 22c5.5 0 10-4.5 10-10S17.5 2 12 2 2 6.5 2 12s4.5 10 10 10Zm.7-4h-1.5V9.5h1.5V18ZM11.3 6.3c.2-.2.4-.3.7-.3.3 0 .5.1.7.3.2.2.3.4.3.7 0 .3-.1.5-.3.7-.2.2-.4.3-.7.3-.3 0-.5-.1-.7-.3-.2-.2-.3-.4-.3-.7 0-.3.1-.5.3-.7Z" fill="#1A1A1C"/></g><defs><clipPath id="cka"><path fill="#fff" d="M0 0h24v24H0z"/></clipPath></defs></symbol><symbol fill="none" viewBox="0 0 24 24" id="information_line" xmlns="http://www.w3.org/2000/svg"><g clip-path="url(#cla)"><path fill-rule="evenodd" clip-rule="evenodd" d="M12 22C6.5 22 2 17.5 2 12S6.5 2 12 2s10 4.5 10 10-4.5 10-10 10Zm0-18.5c-4.7 0-8.5 3.8-8.5 8.5s3.8 8.5 8.5 8.5 8.5-3.8 8.5-8.5-3.8-8.5-8.5-8.5ZM11 7c0-.3.1-.5.3-.7.2-.2.4-.3.7-.3.3 0 .5.1.7.3.2.2.3.4.3.7 0 .3-.1.5-.3.7-.2.2-.4.3-.7.3-.3 0-.5-.1-.7-.3-.2-.2-.3-.4-.3-.7Zm.2 2.5h1.5V18h-1.5V9.5Z" fill="#1A1A1C"/></g><defs><clipPath id="cla"><path fill="#fff" d="M0 0h24v24H0z"/></clipPath></defs></symbol><symbol fill="none" viewBox="0 0 24 24" id="invoice_fill" xmlns="http://www.w3.org/2000/svg"><g clip-path="url(#cma)"><path fill-rule="evenodd" clip-rule="evenodd" d="M14 4.6v1.6c-4.5.4-8.1 4.2-8 8.8 0 1.1.2 2.1.5 3h-5V2h9.8L14 4.6Zm-1.3.9-2.2-2.2v2.2h2.2ZM8 5.7H3.5V7H8V5.7Zm-2 3H3.5V10H6V8.7Zm7.6-1.1c.3-.1.7-.1 1.1-.1 4.2 0 7.5 3.4 7.5 7.5s-3.4 7.5-7.5 7.5c-3.1 0-5.7-1.8-6.9-4.5-.4-.9-.6-1.9-.6-3 0-3.8 2.8-6.9 6.4-7.4Zm1.7 7.9h2v-1h-1.6l1.7-3h-1.1l-1.6 2.9-1.6-2.9H12l1.7 3h-1.4v1h2v1h-2v1h2V19h1v-1.5h2v-1h-2v-1Z" fill="#1A1A1C"/></g><defs><clipPath id="cma"><path fill="#fff" d="M0 0h24v24H0z"/></clipPath></defs></symbol><symbol fill="none" viewBox="0 0 24 24" id="invoice_line" xmlns="http://www.w3.org/2000/svg"><g clip-path="url(#cna)"><path fill-rule="evenodd" clip-rule="evenodd" d="M14.5 4.6 11.8 2H1.5v16h4v-1.5H3v-13h7.5V6h4V4.6ZM9.1 6.5H4.5V8h4.6V6.5Zm-4.6 3H7V11H4.5V9.5Zm11.9 2-1.6 2.9-1.7-2.9H12l1.7 3h-1.4v1h1.9v1h-1.9v1h1.9V19h1v-1.5h2.1v-1h-2.1v-1h2.1v-1h-1.5l1.7-3h-1.1Zm4.3 3.5c0-3.3-2.7-6-6-6s-6 2.7-6 6 2.7 6 6 6 6-2.7 6-6ZM7.2 15c0-4.1 3.4-7.5 7.5-7.5 4.2 0 7.5 3.4 7.5 7.5s-3.4 7.5-7.5 7.5-7.5-3.4-7.5-7.5Z" fill="#1A1A1C"/></g><defs><clipPath id="cna"><path fill="#fff" d="M0 0h24v24H0z"/></clipPath></defs></symbol><symbol fill="none" viewBox="0 0 24 24" id="itinerary_fill" xmlns="http://www.w3.org/2000/svg"><g clip-path="url(#coa)"><path d="M15.202 21.7c.1-.7-.2-1.4-.8-1.8l-1.2-.8c.2-2.1.4-4.3.5-5.8l8.6 2.9c0-1.2.1-2.7-.7-3.2-1.2-.7-7.7-4.6-7.7-4.6.3-4.2-.8-6.2-1.8-6.2-1.1 0-2.1 2-1.8 6.2 0 0-6.5 3.9-7.7 4.6-.9.5-.7 2-.7 3.2l8.6-2.9c.1 1.5.3 3.7.5 5.8l-1.4.9c-.6.3-.9 1-.8 1.7h6.4Z" fill="#1A1A1C"/></g><defs><clipPath id="coa"><path fill="#fff" d="M0 0h24v24H0z"/></clipPath></defs></symbol><symbol fill="none" viewBox="0 0 24 24" id="itinerary_line" xmlns="http://www.w3.org/2000/svg"><g clip-path="url(#cpa)"><path fill-rule="evenodd" clip-rule="evenodd" d="M11.097 19.362 9.7 20.2c-.4.3-.7.8-.7 1.3h6c0-.5-.3-1-.7-1.3l-1.389-.833c.197-2.266.39-4.794.489-6.167L22 16v-1.5c0-.5-.3-1-.7-1.3l-7.7-4.6V6.3c0-1.4-.4-2.6-.8-3.3-.4-.7-1.1-.7-1.6 0-.4.7-.8 1.9-.8 3.3v2.3l-7.7 4.6c-.4.3-.7.8-.7 1.3V16l8.6-2.9c.1 1.392.298 3.972.497 6.262Z" fill="#1A1A1C"/></g><defs><clipPath id="cpa"><path fill="#fff" d="M0 0h24v24H0z"/></clipPath></defs></symbol><symbol fill="none" viewBox="0 0 24 24" id="laws_fill" xmlns="http://www.w3.org/2000/svg"><g clip-path="url(#cqa)"><path fill-rule="evenodd" clip-rule="evenodd" d="M11.8 4.8 14.6 2l5.6 5.7-2.8 2.8-5.6-5.7ZM9.677 6.938l1.06-1.06L22.05 17.19l-1.06 1.06L9.675 6.939ZM3 19.5h13V21H3v-1.5ZM8.6 8l-2.9 2.8 5.7 5.7 2.8-2.8L8.6 8Z" fill="#1A1A1C"/></g><defs><clipPath id="cqa"><path fill="#fff" d="M0 0h24v24H0z"/></clipPath></defs></symbol><symbol fill="none" viewBox="0 0 24 24" id="laws_line" xmlns="http://www.w3.org/2000/svg"><g clip-path="url(#cra)"><path fill-rule="evenodd" clip-rule="evenodd" d="m16.3 9.4 1.1 1.1 2.8-2.8L14.6 2l-2.8 2.8 1 1.1 1.8-1.8 3.5 3.6-1.8 1.7ZM9.677 6.938l1.06-1.06L22.05 17.19l-1.06 1.06L9.675 6.939ZM3 19.5h13V21H3v-1.5Zm8.4-3-5.7-5.7L8.6 8l1 1.1-1.7 1.7 3.5 3.5 1.8-1.7 1 1.1-2.8 2.8Z" fill="#1A1A1C"/></g><defs><clipPath id="cra"><path fill="#fff" d="M0 0h24v24H0z"/></clipPath></defs></symbol><symbol fill="none" viewBox="0 0 24 24" id="luggage_fill" xmlns="http://www.w3.org/2000/svg"><g clip-path="url(#csa)"><path d="M15 2H9v3H5v15h2.6c-.1.2-.1.3-.1.5 0 .8.7 1.5 1.5 1.5s1.5-.7 1.5-1.5c0-.2 0-.3-.1-.5h3.2c-.1.2-.1.3-.1.5 0 .8.7 1.5 1.5 1.5s1.5-.7 1.5-1.5c0-.2 0-.3-.1-.5H19V5h-4V2ZM9.5 16.5h-1V9h1v7.5Zm3 0h-1V9h1v7.5Zm1-11.5h-3V3.5h3V5Zm2 4v7.5h-1V9h1Z" fill="#1A1A1C"/></g><defs><clipPath id="csa"><path fill="#fff" d="M0 0h24v24H0z"/></clipPath></defs></symbol><symbol fill="none" viewBox="0 0 24 24" id="luggage_line" xmlns="http://www.w3.org/2000/svg"><g clip-path="url(#cta)"><path fill-rule="evenodd" clip-rule="evenodd" d="M15 5h4v15h-2.6c.1.2.1.3.1.5 0 .8-.7 1.5-1.5 1.5s-1.5-.7-1.5-1.5c0-.2 0-.3.1-.5h-3.2c.1.2.1.3.1.5 0 .8-.7 1.5-1.5 1.5s-1.5-.7-1.5-1.5c0-.2 0-.3.1-.5H5V5h4V2h6v3Zm-1.5-1.5h-3V5h3V3.5Zm-7 15h11v-12h-11v12Zm2.7-9.8h1v7.7h-1V8.7Zm2.3 0h1v7.7h-1V8.7Zm3.2 0h-1v7.7h1V8.7Z" fill="#1A1A1C"/></g><defs><clipPath id="cta"><path fill="#fff" d="M0 0h24v24H0z"/></clipPath></defs></symbol><symbol fill="none" viewBox="0 0 24 24" id="mailing_fill" xmlns="http://www.w3.org/2000/svg"><g clip-path="url(#cua)"><path fill-rule="evenodd" clip-rule="evenodd" d="M8.4 2.5h3.1c-2 1.4-3.3 3.7-3.3 6.2v7.8H2V8.9c0-3.5 2.9-6.4 6.4-6.4ZM13.002 22h-2v-5.6h-1.4V8.7c0-3.3 2.7-6.1 6-6.2h.2c3.4 0 6.2 2.7 6.2 6.2v7.8h-9V22Zm-.5-11.2h6.5V9.5h-6.5v1.3Z" fill="#1A1A1C"/></g><defs><clipPath id="cua"><path fill="#fff" d="M0 0h24v24H0z"/></clipPath></defs></symbol><symbol fill="none" viewBox="0 0 24 24" id="mailing_line" xmlns="http://www.w3.org/2000/svg"><g clip-path="url(#cva)"><path fill-rule="evenodd" clip-rule="evenodd" d="M15.5 2.5c3.6.1 6.5 3.1 6.5 6.7V17h-9v5h-2v-5H2V8.9c0-3.5 2.9-6.4 6.5-6.4h7Zm-12 6.4v6.6h5.1V9.2c0-2.1.9-4 2.4-5.2H8.4C5.7 4 3.5 6.2 3.5 8.9Zm7.6 6.6h9.3V9.2c0-2.9-2.3-5.2-5.2-5.2C12.3 4 10 6.3 10 9.2v6.3h1.1Zm1.2-6.1h6.3v1.5h-6.3V9.4Z" fill="#1A1A1C"/></g><defs><clipPath id="cva"><path fill="#fff" d="M0 0h24v24H0z"/></clipPath></defs></symbol><symbol fill="none" viewBox="0 0 24 24" id="me_fill" xmlns="http://www.w3.org/2000/svg"><g clip-path="url(#cwa)"><path fill-rule="evenodd" clip-rule="evenodd" d="M16.5 6.5a4.5 4.5 0 1 1-9 0 4.5 4.5 0 0 1 9 0Zm-3.3 6.6c4.3 0 7.8 3.4 7.8 7.7V22H3v-1.2c0-4.3 3.5-7.8 7.7-7.7h2.5Z" fill="#1A1A1C"/></g><defs><clipPath id="cwa"><path fill="#fff" d="M0 0h24v24H0z"/></clipPath></defs></symbol><symbol fill="none" viewBox="0 0 24 24" id="me_line" xmlns="http://www.w3.org/2000/svg"><g clip-path="url(#cxa)"><path fill-rule="evenodd" clip-rule="evenodd" d="M15 6.5c0-1.7-1.3-3-3-3s-3 1.3-3 3 1.3 3 3 3 3-1.3 3-3Zm-7.5 0C7.5 4 9.5 2 12 2s4.5 2 4.5 4.5-2 4.5-4.5 4.5-4.5-2-4.5-4.5Zm12 15.5h1.6v-1.2c0-4.2-3.5-7.7-7.8-7.7h-2.5c-4.3 0-7.8 3.4-7.8 7.7V22h1.6v-1.2c0-3.4 2.8-6.2 6.2-6.2h2.5c3.4 0 6.2 2.8 6.2 6.2V22Z" fill="#1A1A1C"/></g><defs><clipPath id="cxa"><path fill="#fff" d="M0 0h24v24H0z"/></clipPath></defs></symbol><symbol fill="none" viewBox="0 0 24 24" id="medicine_fill" xmlns="http://www.w3.org/2000/svg"><g clip-path="url(#cya)"><path d="M20 4c-1.2-1.2-2.7-1.8-4.3-1.8-1.6 0-3.2.6-4.3 1.8L4 11.3c-1.2 1.2-1.8 2.7-1.8 4.3 0 1.6.6 3.2 1.8 4.3 1.2 1.2 2.7 1.8 4.3 1.8 1.6 0 3.2-.6 4.3-1.8l7.2-7.2c1.2-1.2 1.8-2.7 1.8-4.3.1-1.7-.5-3.2-1.6-4.4Zm-.3 4.4c0 1.1-.4 2.1-1.2 2.9l-2.9 2.9-5.8-5.8 2.9-2.9c.8-.8 1.8-1.2 2.9-1.2 1.1 0 2.1.4 2.9 1.2.8.8 1.2 1.8 1.2 2.9Z" fill="#1A1A1C"/></g><defs><clipPath id="cya"><path fill="#fff" d="M0 0h24v24H0z"/></clipPath></defs></symbol><symbol fill="none" viewBox="0 0 24 24" id="medicine_line" xmlns="http://www.w3.org/2000/svg"><g clip-path="url(#cza)"><path d="M19.802 4.2c-1.1-1.1-2.6-1.7-4.2-1.7s-3 .6-4.2 1.7l-7.2 7.2c-2.3 2.3-2.3 6 0 8.3 1.1 1.1 2.6 1.7 4.2 1.7 1.5 0 3-.6 4.2-1.7l7.2-7.2c1.1-1.1 1.7-2.6 1.7-4.2 0-1.5-.6-3-1.7-4.1Zm-8.3 14.5c-1.7 1.7-4.5 1.7-6.2 0-1.7-1.7-1.7-4.5 0-6.2l3.1-3.1 6.2 6.2-3.1 3.1Zm7.2-7.2-3.1 3.1-6.2-6.2 3.1-3.1c.9-.8 2-1.3 3.1-1.3 1.2 0 2.3.5 3.1 1.3.8.8 1.3 1.9 1.3 3.1 0 1.1-.5 2.2-1.3 3.1Z" fill="#1A1A1C"/></g><defs><clipPath id="cza"><path fill="#fff" d="M0 0h24v24H0z"/></clipPath></defs></symbol><symbol fill="none" viewBox="0 0 24 24" id="menu_fill" xmlns="http://www.w3.org/2000/svg"><g clip-path="url(#daa)"><path fill-rule="evenodd" clip-rule="evenodd" d="M21.2 5.3H2.7v2h18.5v-2Zm0 5.7H2.7v2h18.5v-2ZM2.7 16.7h18.5v2H2.7v-2Z" fill="#1A1A1C"/></g><defs><clipPath id="daa"><path fill="#fff" d="M0 0h24v24H0z"/></clipPath></defs></symbol><symbol fill="none" viewBox="0 0 24 24" id="menu_line" xmlns="http://www.w3.org/2000/svg"><g clip-path="url(#dba)"><path fill-rule="evenodd" clip-rule="evenodd" d="M21 5.5H3V7h18V5.5Zm0 5.8H3v1.5h18v-1.5ZM3 17h18v1.5H3V17Z" fill="#1A1A1C"/></g><defs><clipPath id="dba"><path fill="#fff" d="M0 0h24v24H0z"/></clipPath></defs></symbol><symbol fill="none" viewBox="0 0 24 24" id="money_fill" xmlns="http://www.w3.org/2000/svg"><g clip-path="url(#dca)"><path d="M12 2C6.5 2 2 6.5 2 12s4.5 10 10 10 10-4.5 10-10S17.5 2 12 2Zm4 9.6v1h-3.3v1.8H16v1h-3.3V18h-1.3v-2.6H8v-1h3.3v-1.8H8v-1h2.6L7.8 7h1.5l2.7 4.4L14.7 7h1.5l-2.8 4.6H16Z" fill="#1A1A1C"/></g><defs><clipPath id="dca"><path fill="#fff" d="M0 0h24v24H0z"/></clipPath></defs></symbol><symbol fill="none" viewBox="0 0 24 24" id="money_line" xmlns="http://www.w3.org/2000/svg"><g clip-path="url(#dda)"><path fill-rule="evenodd" clip-rule="evenodd" d="M2 12c0 5.5 4.5 10 10 10s10-4.5 10-10S17.5 2 12 2 2 6.5 2 12Zm1.5 0c0-4.7 3.8-8.5 8.5-8.5s8.5 3.8 8.5 8.5-3.8 8.5-8.5 8.5-8.5-3.8-8.5-8.5Zm8.502-.3 2.7-4.7h1.7l-2.8 5h2.4v1h-3.3v1.5h3.3v1h-3.3V18h-1.5v-2.5h-3.2v-1h3.2V13h-3.2v-1h2.4l-2.8-5h1.7l2.7 4.7Z" fill="#1A1A1C"/></g><defs><clipPath id="dda"><path fill="#fff" d="M0 0h24v24H0z"/></clipPath></defs></symbol><symbol fill="none" viewBox="0 0 24 24" id="mother_and_child_fill" xmlns="http://www.w3.org/2000/svg"><g clip-path="url(#dea)"><path fill-rule="evenodd" clip-rule="evenodd" d="M15.5 5.5a3.5 3.5 0 1 1-7 0 3.5 3.5 0 0 1 7 0Zm-2.302 4.9c3.8 0 6.8 3.1 6.8 6.8V21h-4.4c-.6-1.5-2-2.5-3.7-2.5-1.7 0-3.1 1-3.7 2.5h-4.3v-3.8c0-3.8 3.1-6.8 6.8-6.8h2.5Zm-3.2 5.1c0 1.1.9 2 2 2s2-.9 2-2-.9-2-2-2-2 .9-2 2Z" fill="#1A1A1C"/></g><defs><clipPath id="dea"><path fill="#fff" d="M0 0h24v24H0z"/></clipPath></defs></symbol><symbol fill="none" viewBox="0 0 24 24" id="mother_and_child_line" xmlns="http://www.w3.org/2000/svg"><g clip-path="url(#dfa)"><path fill-rule="evenodd" clip-rule="evenodd" d="M15.5 5.5C15.5 7.4 13.9 9 12 9S8.5 7.4 8.5 5.5 10.1 2 12 2s3.5 1.6 3.5 3.5Zm-1.5 0c0-1.1-.9-2-2-2s-2 .9-2 2 .9 2 2 2 2-.9 2-2Zm0 10a2 2 0 1 1-4 0 2 2 0 0 1 4 0Zm-2.003 3c-1.7 0-3.1 1-3.7 2.5h7.4c-.6-1.5-2-2.5-3.7-2.5Zm-1.199-6.6c-2.9 0-5.3 2.4-5.3 5.3h-.1V21h-1.5v-3.8c0-3.8 3.1-6.8 6.8-6.8h2.5c3.8 0 6.8 3.1 6.8 6.8V21h-1.5v-3.8c0-2.9-2.3-5.3-5.2-5.3h-2.5Z" fill="#1A1A1C"/></g><defs><clipPath id="dfa"><path fill="#fff" d="M0 0h24v24H0z"/></clipPath></defs></symbol><symbol fill="none" viewBox="0 0 24 24" id="municipality_fill" xmlns="http://www.w3.org/2000/svg"><g clip-path="url(#dga)"><path fill-rule="evenodd" clip-rule="evenodd" d="M16.5 21.9v-2.4l3.6-4.6L9.5 6.6 8 7.8V2h14v19.9h-5.5ZM15 10h4V8.5h-4V10Zm-3.5-3.5H19V5h-7.5v1.5Zm-9.6 9.9L1 15.2l8.5-6.7 8.5 6.6-.9 1.2-2.1-1.6V22H4v-7.2l-2.1 1.6ZM8 16v3h3v-3H8Z" fill="#1A1A1C"/></g><defs><clipPath id="dga"><path fill="#fff" d="M0 0h24v24H0z"/></clipPath></defs></symbol><symbol fill="none" viewBox="0 0 24 24" id="municipality_line" xmlns="http://www.w3.org/2000/svg"><g clip-path="url(#dha)"><path fill-rule="evenodd" clip-rule="evenodd" d="M8 2v5h1.5V3.5h11V22H22V2H8Zm3.5 3.5h7V7h-7V5.5Zm7 3H14V10h4.5V8.5ZM12 20v-5H7v5h5Zm-3.5-3.5h2v2h-2v-2Zm-6.6-.1L1 15.2l8.5-6.7 8.5 6.7-.9 1.2-1.6-1.2V22H14v-8l-4.5-3.5L5 14v8H3.5v-6.9l-1.6 1.3Z" fill="#1A1A1C"/></g><defs><clipPath id="dha"><path fill="#fff" d="M0 0h24v24H0z"/></clipPath></defs></symbol><symbol fill="none" viewBox="0 0 24 24" id="new_window_fill" xmlns="http://www.w3.org/2000/svg"><g clip-path="url(#dia)"><path fill-rule="evenodd" clip-rule="evenodd" d="M4.8 19.2h14.4v-6.4h2v8.4H2.8V2.8h8.4v2H4.8v14.4Zm8.902-14.4v-2h7.5v7.5h-2V6.2l-8.7 8.7-1.4-1.4 8.7-8.7h-4.1Z" fill="#1A1A1C"/></g><defs><clipPath id="dia"><path fill="#fff" d="M0 0h24v24H0z"/></clipPath></defs></symbol><symbol fill="none" viewBox="0 0 24 24" id="new_window_line" xmlns="http://www.w3.org/2000/svg"><g clip-path="url(#dja)"><path fill-rule="evenodd" clip-rule="evenodd" d="M4.5 19.5h15V13H21v8H3V3h8v1.5H4.5v15Zm9.5-15V3h7v7h-1.5V5.6l-9 8.9-1-1 8.9-9H14Z" fill="#1A1A1C"/></g><defs><clipPath id="dja"><path fill="#fff" d="M0 0h24v24H0z"/></clipPath></defs></symbol><symbol fill="none" viewBox="0 0 24 24" id="notification_fill" xmlns="http://www.w3.org/2000/svg"><g clip-path="url(#dka)"><path fill-rule="evenodd" clip-rule="evenodd" d="m19.9 16.1.1.2V18H4v-1.7l.1-.2S6 12.6 6 9.5c0-1.8.8-3.4 2-4.5.5-.4 1-.7 1.6-1a.503.503 0 0 1 .2-.1c.075-.025.15-.05.2-.1.1-1 .9-1.8 2-1.8s1.9.8 2 1.8c.05.05.125.075.2.1.075.025.15.05.2.1.6.2 1.1.6 1.6 1 1.2 1.1 2 2.7 2 4.5 0 3.1 1.9 6.6 1.9 6.6Zm-5.4 3.4c0 1.4-1.1 2.5-2.5 2.5s-2.5-1.1-2.5-2.5h5Z" fill="#1A1A1C"/></g><defs><clipPath id="dka"><path fill="#fff" d="M0 0h24v24H0z"/></clipPath></defs></symbol><symbol fill="none" viewBox="0 0 24 24" id="notification_line" xmlns="http://www.w3.org/2000/svg"><g clip-path="url(#dla)"><path fill-rule="evenodd" clip-rule="evenodd" d="M18 9.5c0 3.1 1.9 6.6 1.9 6.6l.1.2V18H4v-1.7l.1-.2S6 12.6 6 9.5c0-1.8.8-3.4 2-4.5.5-.4 1-.7 1.6-1a.503.503 0 0 1 .2-.1c.075-.025.15-.05.2-.1.1-1 .9-1.8 2-1.8s1.9.8 2 1.8c.05.05.125.075.2.1.075.025.15.05.2.1.6.2 1.1.6 1.6 1 1.2 1.1 2 2.7 2 4.5Zm-10.5 0c0 2.9-1.4 6-1.9 7h12.8c-.5-1-1.9-4.1-1.9-7 0-.7-.2-1.4-.5-2-.4-.9-1.1-1.6-2-2-.6-.3-1.3-.5-2-.5s-1.4.2-2 .5c-.9.4-1.6 1.1-2 2-.3.6-.5 1.3-.5 2Zm7 10c0 1.4-1.1 2.5-2.5 2.5s-2.5-1.1-2.5-2.5h5Z" fill="#1A1A1C"/></g><defs><clipPath id="dla"><path fill="#fff" d="M0 0h24v24H0z"/></clipPath></defs></symbol><symbol fill="none" viewBox="0 0 24 24" id="password_fill" xmlns="http://www.w3.org/2000/svg"><g clip-path="url(#dma)"><path fill-rule="evenodd" clip-rule="evenodd" d="M16 8h2.5v9h-13V8h9V6c0-1.4-1.1-2.5-2.5-2.5S9.5 4.6 9.5 6v.5H8V6c0-2.2 1.8-4 4-4s4 1.8 4 4v2ZM7.5 20.5a1.5 1.5 0 1 1-3 0 1.5 1.5 0 0 1 3 0Zm3 0c0-.8.7-1.5 1.5-1.5s1.5.7 1.5 1.5S12.8 22 12 22s-1.5-.7-1.5-1.5ZM18 22a1.5 1.5 0 1 0 0-3 1.5 1.5 0 0 0 0 3Z" fill="#1A1A1C"/></g><defs><clipPath id="dma"><path fill="#fff" d="M0 0h24v24H0z"/></clipPath></defs></symbol><symbol fill="none" viewBox="0 0 24 24" id="password_line" xmlns="http://www.w3.org/2000/svg"><g clip-path="url(#dna)"><path fill-rule="evenodd" clip-rule="evenodd" d="M16 8h2.5v9h-13V8h9V6c0-1.4-1.1-2.5-2.5-2.5S9.5 4.6 9.5 6v.5H8V6c0-2.2 1.8-4 4-4s4 1.8 4 4v2ZM7 9.5v6h10v-6H7Zm.5 11a1.5 1.5 0 1 1-3 0 1.5 1.5 0 0 1 3 0Zm3 0c0-.8.7-1.5 1.5-1.5s1.5.7 1.5 1.5S12.8 22 12 22s-1.5-.7-1.5-1.5ZM18 22a1.5 1.5 0 1 0 0-3 1.5 1.5 0 0 0 0 3Z" fill="#1A1A1C"/></g><defs><clipPath id="dna"><path fill="#fff" d="M0 0h24v24H0z"/></clipPath></defs></symbol><symbol fill="none" viewBox="0 0 24 24" id="pension_fill" xmlns="http://www.w3.org/2000/svg"><g clip-path="url(#doa)"><path fill-rule="evenodd" clip-rule="evenodd" d="M8.6 8.5c0-3.9 3.1-7 7-7s6.9 3.1 6.9 7-3.1 7-7 7c-.5 0-1-.1-1.5-.2v-.8c0-1.4-1.1-2.5-2.5-2.5h-2c-.6-1-.9-2.2-.9-3.5Zm7.5.5h2V8h-1.5l1.7-3h-1.1l-1.7 2.9L13.9 5h-1.1l1.7 3h-1.4v1h2v1h-2v1h2v1.5h1V11h2v-1h-2V9Zm-11-1.8a1.8 1.8 0 1 1-3.6 0 1.8 1.8 0 0 1 3.6 0Zm2.502 11.9 2.5 3.4 1-.6.3-.2-.3-.7-1.8-3.8c-.1-.3-.4-.5-.7-.6l-3.6-.7V14c.114.046.222.091.328.136.36.15.686.287 1.072.364.9.2 1.8.3 2.6.1 0-.5.1-1.1.4-1.5-.427 0-.782-.073-1.187-.156-.07-.014-.14-.03-.213-.044-.9-.2-1.6-.6-2.4-1.2-.172-.146-.343-.353-.528-.576-.569-.687-1.264-1.526-2.472-1.224-.7.2-1.2.8-1.2 1.6v5.7c0 1 .8 1.7 1.7 1.7l4.5.2Zm2.499-4.6c0-.8.7-1.5 1.5-1.5s1.5.7 1.5 1.5v8h-1v-8c0-.3-.2-.5-.5-.5s-.5.2-.5.5v.5h-1v-.5Z" fill="#1A1A1C"/></g><defs><clipPath id="doa"><path fill="#fff" d="M0 0h24v24H0z"/></clipPath></defs></symbol><symbol fill="none" viewBox="0 0 24 24" id="pension_line" xmlns="http://www.w3.org/2000/svg"><g clip-path="url(#dpa)"><path fill-rule="evenodd" clip-rule="evenodd" d="M15.1 16.5V15c3.3 0 6-2.7 6-6s-2.7-6-6-6-6 2.7-6 6c0 .8.1 1.5.4 2.2l-1.4.6c-.3-.9-.5-1.8-.5-2.8 0-4.1 3.4-7.5 7.5-7.5s7.5 3.4 7.5 7.5-3.4 7.5-7.5 7.5Zm0-8.1 1.6-2.9h1.2l-1.7 3h1.4v1h-2v1h2v1h-2V13h-1v-1.5h-2v-1h2v-1h-2v-1H14l-1.7-3h1.2l1.6 2.9ZM7.602 19.1l2.5 3.4 1.3-.8-2.1-4.5c-.1-.3-.4-.5-.7-.6l-3.6-.7V14l.328.136c.36.15.686.287 1.072.364 1 .3 2.1.3 3.1.1v-1.4c-.5 0-1-.1-1.5-.2-.9-.2-1.6-.6-2.4-1.2-.172-.147-.343-.354-.528-.576C4.505 10.537 3.81 9.698 2.602 10c-.7.2-1.2.8-1.2 1.6v5.7c0 1 .8 1.7 1.7 1.7l4.5.1ZM12.1 13c-.8 0-1.5.7-1.5 1.5v.5h1v-.5c0-.3.2-.5.5-.5s.5.2.5.5v8h1v-8c0-.8-.7-1.5-1.5-1.5ZM5.103 7.2a1.8 1.8 0 1 1-3.6 0 1.8 1.8 0 0 1 3.6 0Z" fill="#1A1A1C"/></g><defs><clipPath id="dpa"><path fill="#fff" d="M0 0h24v24H0z"/></clipPath></defs></symbol><symbol fill="none" viewBox="0 0 24 24" id="personal_computer_fill" xmlns="http://www.w3.org/2000/svg"><g clip-path="url(#dqa)"><path d="M3 16.5h7.5v3h-3V21h9v-1.5h-3v-3H21V4.9H3v11.6Z" fill="#1A1A1C"/></g><defs><clipPath id="dqa"><path fill="#fff" d="M0 0h24v24H0z"/></clipPath></defs></symbol><symbol fill="none" viewBox="0 0 24 24" id="personal_computer_line" xmlns="http://www.w3.org/2000/svg"><g clip-path="url(#dra)"><path d="M21 16.5V4.9H3v11.6h7.5v3h-3V21h9v-1.5h-3v-3H21ZM4.5 6.4h15V15h-15V6.4Z" fill="#1A1A1C"/></g><defs><clipPath id="dra"><path fill="#fff" d="M0 0h24v24H0z"/></clipPath></defs></symbol><symbol fill="none" viewBox="0 0 24 24" id="printer_fill" xmlns="http://www.w3.org/2000/svg"><g clip-path="url(#dsa)"><path fill-rule="evenodd" clip-rule="evenodd" d="M5 3h14v3.2H5V3Zm15.3 14H22V7.5H2V17h1.7v-6.3h16.6V17ZM5 21h14v-9H5v9Zm3-6.5h8v1H8v-1Zm8 4H8v-1h8v1Z" fill="#1A1A1C"/></g><defs><clipPath id="dsa"><path fill="#fff" d="M0 0h24v24H0z"/></clipPath></defs></symbol><symbol fill="none" viewBox="0 0 24 24" id="printer_line" xmlns="http://www.w3.org/2000/svg"><g clip-path="url(#dta)"><path fill-rule="evenodd" clip-rule="evenodd" d="M19 7V3H5v4H2v10h3v4h14v-4h3V7h-3ZM6.5 4.5h11V7h-11V4.5Zm11 15h-11v-7h11v7Zm3-4H19V11H5v4.5H3.5v-7h17v7ZM8 17.7h8v-1H8v1Zm0-3.4h8v1H8v-1Z" fill="#1A1A1C"/></g><defs><clipPath id="dta"><path fill="#fff" d="M0 0h24v24H0z"/></clipPath></defs></symbol><symbol fill="none" viewBox="0 0 24 24" id="privacy_protection_fill" xmlns="http://www.w3.org/2000/svg"><g clip-path="url(#dua)"><path fill-rule="evenodd" clip-rule="evenodd" d="M22 14V7h-2V5.7C20 4.2 18.8 3 17.2 3c-1.6 0-2.7 1.2-2.7 2.7V7h-2v7H22Zm-6-8.3c0-.7.6-1.3 1.2-1.3s1.2.6 1.2 1.3V7H16V5.7ZM13.5 22c0-1.5-.6-2.9-1.5-4-1.1-1.2-2.7-2-4.4-2-1.7 0-3.3.8-4.4 2-1 1.1-1.5 2.5-1.5 4h11.8ZM4.3 11.7c0-1.7 1.4-3.2 3.2-3.2 1.8 0 3.2 1.6 3.2 3.3 0 1.7-1.4 3.2-3.2 3.2-1.8 0-3.2-1.6-3.2-3.3Z" fill="#1A1A1C"/></g><defs><clipPath id="dua"><path fill="#fff" d="M0 0h24v24H0z"/></clipPath></defs></symbol><symbol fill="none" viewBox="0 0 24 24" id="privacy_protection_line" xmlns="http://www.w3.org/2000/svg"><g clip-path="url(#dva)"><path fill-rule="evenodd" clip-rule="evenodd" d="M20 7V5.7C20 4.2 18.8 3 17.2 3c-1.6 0-2.7 1.2-2.7 2.7V7h-2v7H22V7h-2Zm-4-1.3c0-.7.6-1.3 1.2-1.3s1.2.6 1.2 1.3V7H16V5.7Zm4.5 6.8H14v-4h6.5v4ZM11.902 18c-1.1-1.2-2.7-2-4.4-2-1.7 0-3.3.8-4.4 2-1 1.1-1.5 2.5-1.5 4h1.4c0-1.8 1-3.3 2.5-4 .6-.3 1.3-.5 2-.5s1.4.2 2 .5c1.5.7 2.5 2.2 2.5 4h1.5c0-1.5-.6-2.9-1.6-4ZM4.3 11.7c0-1.7 1.4-3.2 3.2-3.2 1.8 0 3.2 1.6 3.2 3.3 0 1.7-1.4 3.2-3.2 3.2-1.8 0-3.2-1.6-3.2-3.3Zm1.4 0c0 1 .8 1.8 1.8 1.8s1.8-.7 1.8-1.7S8.5 10 7.5 10s-1.8.7-1.8 1.7Z" fill="#1A1A1C"/></g><defs><clipPath id="dva"><path fill="#fff" d="M0 0h24v24H0z"/></clipPath></defs></symbol><symbol fill="none" viewBox="0 0 24 24" id="public_offering_fill" xmlns="http://www.w3.org/2000/svg"><g clip-path="url(#dwa)"><path d="M5 22H3.5V2.5l18.5 7-17 7V22Z" fill="#1A1A1C"/></g><defs><clipPath id="dwa"><path fill="#fff" d="M0 0h24v24H0z"/></clipPath></defs></symbol><symbol fill="none" viewBox="0 0 24 24" id="public_offering_line" xmlns="http://www.w3.org/2000/svg"><g clip-path="url(#dxa)"><path d="M5 22H3.5V2.5l18.5 7-17 7V22ZM5 4.7v10.2l12.9-5.3L5 4.7Z" fill="#1A1A1C"/></g><defs><clipPath id="dxa"><path fill="#fff" d="M0 0h24v24H0z"/></clipPath></defs></symbol><symbol fill="none" viewBox="0 0 24 24" id="seal_certificate_fill" xmlns="http://www.w3.org/2000/svg"><g clip-path="url(#dya)"><path d="M19 4.5H2v15h20v-12l-3-3Zm-7.5 3.6h5v1.3h-5V8.1Zm-4.1 0c1 0 1.8.8 1.8 1.9 0 1-.8 1.8-1.8 1.8S5.5 11 5.5 10c0-1.1.8-1.9 1.9-1.9Zm10.7 7.8H5.5v-1.3h12.6v1.3Zm0-3.3h-6.6v-1.3h6.6v1.3ZM18 8.5V6l2.5 2.5H18Z" fill="#1A1A1C"/></g><defs><clipPath id="dya"><path fill="#fff" d="M0 0h24v24H0z"/></clipPath></defs></symbol><symbol fill="none" viewBox="0 0 24 24" id="seal_certificate_line" xmlns="http://www.w3.org/2000/svg"><g clip-path="url(#dza)"><path fill-rule="evenodd" clip-rule="evenodd" d="M19.5 4h-18v16h21V7l-3-3ZM3 18.5v-13h15.5V8H21v10.5H3Zm4.5-6a2 2 0 1 0 0-4 2 2 0 0 0 0 4Zm4-4.5H17v1.5h-5.5V8Zm7.1 6.5H5.5V16h13.1v-1.5Zm-7.1-3.3h7.1v1.5h-7.1v-1.5Z" fill="#1A1A1C"/></g><defs><clipPath id="dza"><path fill="#fff" d="M0 0h24v24H0z"/></clipPath></defs></symbol><symbol fill="none" viewBox="0 0 24 24" id="search_fill" xmlns="http://www.w3.org/2000/svg"><g clip-path="url(#eaa)"><path d="M15.4 14.5c1.2-1.4 1.8-3.2 1.8-5 0-4.3-3.5-7.8-7.8-7.8S1.7 5.2 1.7 9.5s3.5 7.8 7.8 7.8c1.6 0 3.1-.5 4.4-1.4l6 6 1.4-1.4-5.9-6Zm-.2-5c0 3.2-2.6 5.8-5.8 5.8-3.2 0-5.8-2.6-5.8-5.8 0-3.2 2.6-5.8 5.8-5.8 3.2 0 5.8 2.6 5.8 5.8Z" fill="#1A1A1C"/></g><defs><clipPath id="eaa"><path fill="#fff" d="M0 0h24v24H0z"/></clipPath></defs></symbol><symbol fill="none" viewBox="0 0 24 24" id="search_line" xmlns="http://www.w3.org/2000/svg"><g clip-path="url(#eba)"><path d="m21 20.5-6-6c1.2-1.3 1.9-3.1 1.9-5C17 5.4 13.6 2 9.5 2 5.4 2 2 5.4 2 9.5S5.3 17 9.5 17c1.7 0 3.2-.6 4.5-1.5l6 6 1-1ZM3.5 9.5c0-3.3 2.7-6 6-6s6 2.7 6 6-2.7 6-6 6-6-2.7-6-6Z" fill="#1A1A1C"/></g><defs><clipPath id="eba"><path fill="#fff" d="M0 0h24v24H0z"/></clipPath></defs></symbol><symbol fill="none" viewBox="0 0 24 24" id="smartphone_fill" xmlns="http://www.w3.org/2000/svg"><g clip-path="url(#eca)"><path fill-rule="evenodd" clip-rule="evenodd" d="M6.7 2h10.5c1 0 1.8.8 1.9 1.8v16.5c0 1-.8 1.8-1.8 1.8H6.8c-1 0-1.8-.8-1.8-1.8V3.8C5 2.8 5.8 2 6.7 2ZM12 20.7c.2 0 .4-.1.6-.2.3-.2.4-.4.4-.8 0-.6-.4-1-1-1s-1 .4-1 1c0 .4.2.6.4.8.1.1.4.2.6.2Zm-5.5-3.2h11V4h-11v13.5ZM7.5 5h9v11.5h-9V5Z" fill="#1A1A1C"/></g><defs><clipPath id="eca"><path fill="#fff" d="M0 0h24v24H0z"/></clipPath></defs></symbol><symbol fill="none" viewBox="0 0 24 24" id="smartphone_line" xmlns="http://www.w3.org/2000/svg"><g clip-path="url(#eda)"><path d="M17.2 2H6.7C5.8 2 5 2.8 5 3.8v16.5c0 1 .8 1.8 1.8 1.8h10.5c1 0 1.8-.8 1.8-1.8V3.8c-.1-1-.9-1.8-1.9-1.8Zm-4.6 18.5c-.2.1-.4.2-.6.2-.2 0-.5-.1-.6-.2-.2-.2-.4-.4-.4-.8 0-.6.4-1 1-1s1 .4 1 1c0 .4-.1.6-.4.8Zm4.9-3h-11V4h11v13.5Z" fill="#1A1A1C"/></g><defs><clipPath id="eda"><path fill="#fff" d="M0 0h24v24H0z"/></clipPath></defs></symbol><symbol fill="none" viewBox="0 0 24 24" id="specialist_fill" xmlns="http://www.w3.org/2000/svg"><g clip-path="url(#eea)"><path fill-rule="evenodd" clip-rule="evenodd" d="M8.598 7.5c2.1.4 3.7 2.3 3.7 4.5 1.1 0 2.3.1 3.3.5 2.3-.8 4.8-.6 7 .2V2.4l-.5-.2c-2.1-.7-4.4-.7-6.5-.1-2.3-.7-4.7-.6-7 .2v5.2Zm12.5 3.3c-1.6-.3-3.2-.3-4.8 0V3.6c1.6-.4 3.2-.4 4.8 0v7.2ZM8.899 16.4c-3.6-.8-7.2 2.1-7.2 5.9h12c0-3-2-5.4-4.8-5.9Zm2.103-4.4a3.2 3.2 0 1 1-6.4 0 3.2 3.2 0 0 1 6.4 0Z" fill="#1A1A1C"/></g><defs><clipPath id="eea"><path fill="#fff" d="M0 0h24v24H0z"/></clipPath></defs></symbol><symbol fill="none" viewBox="0 0 24 24" id="specialist_line" xmlns="http://www.w3.org/2000/svg"><g clip-path="url(#efa)"><path fill-rule="evenodd" clip-rule="evenodd" d="M22 2c-2.1-.7-4.4-.7-6.5-.1-2.1-.6-4.4-.5-6.5.1l-.5.2V7H10V3.3c1.6-.4 3.2-.4 4.8 0v7.2c-.7-.2-1.4-.3-2.1-.3v1.5c.9 0 1.8.2 2.6.4l.2.1.2-.1c1.9-.6 3.9-.6 5.8 0l1 .3V2.2L22 2Zm-1 8.5c-1.6-.3-3.2-.3-4.8 0V3.3c1.6-.4 3.2-.4 4.8 0v7.2ZM13.602 22h-1.5c0-2.5-2-4.5-4.5-4.5s-4.5 2-4.5 4.5h-1.5c0-3.3 2.7-6 6-6s6 2.7 6 6ZM9.298 11.7c0-.9-.7-1.7-1.7-1.7s-1.7.8-1.7 1.7c0 .9.8 1.7 1.7 1.7.9 0 1.7-.8 1.7-1.7Zm-4.9 0c0-1.7 1.4-3.2 3.2-3.2 1.8 0 3.3 1.5 3.2 3.2 0 1.7-1.5 3.2-3.2 3.2-1.7 0-3.2-1.4-3.2-3.2Z" fill="#1A1A1C"/></g><defs><clipPath id="efa"><path fill="#fff" d="M0 0h24v24H0z"/></clipPath></defs></symbol><symbol fill="none" viewBox="0 0 24 24" id="stamp_fill" xmlns="http://www.w3.org/2000/svg"><g clip-path="url(#ega)"><path fill-rule="evenodd" clip-rule="evenodd" d="M12 3c2.4 0 4.1 2.3 3.5 4.5l-1 3.7h-5l-1-3.7C7.9 5.3 9.6 3 12 3ZM4 14.5v4h16v-4c0-1.1-.9-2-2-2H6c-1.1 0-2 .9-2 2Zm17.5 6h-19V22h19v-1.5Z" fill="#1A1A1C"/></g><defs><clipPath id="ega"><path fill="#fff" d="M0 0h24v24H0z"/></clipPath></defs></symbol><symbol fill="none" viewBox="0 0 24 24" id="stamp_line" xmlns="http://www.w3.org/2000/svg"><g clip-path="url(#eha)"><path fill-rule="evenodd" clip-rule="evenodd" d="M18 12c1.1 0 2 .9 2 2v4.5H4V14c0-1.1.9-2 2-2h3.6L8.3 7.3C7.7 4.9 9.5 2.5 12 2.5s4.4 2.4 3.7 4.8L14.4 12H18Zm-7.8-7.1c-.4.6-.6 1.3-.4 2l1.4 5.1h1.7l1.3-5.1c.2-.7 0-1.4-.4-2-.4-.6-1.1-.9-1.8-.9s-1.4.3-1.8.9Zm8.3 9.1c0-.3-.2-.5-.5-.5H6c-.3 0-.5.2-.5.5v3h13v-3Zm-16 8v-1.5h19V22h-19Z" fill="#1A1A1C"/></g><defs><clipPath id="eha"><path fill="#fff" d="M0 0h24v24H0z"/></clipPath></defs></symbol><symbol fill="none" viewBox="0 0 24 24" id="tax_fill" xmlns="http://www.w3.org/2000/svg"><g clip-path="url(#eia)"><path fill-rule="evenodd" clip-rule="evenodd" d="M22 12c0 5.5-4.5 10-10 10S2 17.5 2 12 6.5 2 12 2s10 4.5 10 10Zm-7.6 2.9L12 8.5v.1h-1.1l-2.6 7h1.1l.7-2h2.7l.8 2h1.6l1.2-2.6 1.2 2.6h1.1L17 12l1.7-3.4h-1.1l-1.2 2.5-1.2-2.5h-1.1l1.7 3.4-1.4 2.9ZM9.3 8.5H5v1h1.7v6h1v-6h1.6v-1Zm1.2 4 1-2.6 1 2.6h-2Z" fill="#1A1A1C"/></g><defs><clipPath id="eia"><path fill="#fff" d="M0 0h24v24H0z"/></clipPath></defs></symbol><symbol fill="none" viewBox="0 0 24 24" id="tax_line" xmlns="http://www.w3.org/2000/svg"><g clip-path="url(#eja)"><path fill-rule="evenodd" clip-rule="evenodd" d="M12 22C6.5 22 2 17.5 2 12S6.5 2 12 2s10 4.5 10 10-4.5 10-10 10Zm0-18.5c-4.7 0-8.5 3.8-8.5 8.5s3.8 8.5 8.5 8.5 8.5-3.8 8.5-8.5-3.8-8.5-8.5-8.5Zm-2.7 5H5v1h1.7v6h1v-6h1.6v-1Zm3.5 5h-2.7l-.7 2H8.3l2.6-7H12l2.5 6.3 1.4-2.9-1.7-3.4h1.1l1.2 2.5 1.1-2.5h1.1L17 11.9l1.7 3.6h-1.1l-1.2-2.6-1.2 2.6h-1.6l-.8-2Zm-.3-1-1-2.6-1 2.6h2Z" fill="#1A1A1C"/></g><defs><clipPath id="eja"><path fill="#fff" d="M0 0h24v24H0z"/></clipPath></defs></symbol><symbol fill="none" viewBox="0 0 24 24" id="transactions_fill" xmlns="http://www.w3.org/2000/svg"><g clip-path="url(#eka)"><path fill-rule="evenodd" clip-rule="evenodd" d="m5.402 8 2 2-1.4 1.4-4.4-4.4 4.4-4.4 1.4 1.4-2 2h15.8v2h-15.8Zm11.201 5 1.4-1.4 4.4 4.4-4.4 4.4-1.4-1.4 2-2h-15.9v-2h15.9l-2-2Z" fill="#1A1A1C"/></g><defs><clipPath id="eka"><path fill="#fff" d="M0 0h24v24H0z"/></clipPath></defs></symbol><symbol fill="none" viewBox="0 0 24 24" id="transactions_line" xmlns="http://www.w3.org/2000/svg"><g clip-path="url(#ela)"><path fill-rule="evenodd" clip-rule="evenodd" d="m4.798 7.7 2.2 2.3-1 1-4.1-4 4.1-4 1 1-2.2 2.2h16.2v1.5h-16.2ZM17 13l1-1 4.1 4-4.1 4-1-1 2.2-2.3H3v-1.5h16.2L17 13Z" fill="#1A1A1C"/></g><defs><clipPath id="ela"><path fill="#fff" d="M0 0h24v24H0z"/></clipPath></defs></symbol><symbol fill="none" viewBox="0 0 24 24" id="update_fill" xmlns="http://www.w3.org/2000/svg"><g clip-path="url(#ema)"><path fill-rule="evenodd" clip-rule="evenodd" d="m20.398 13.3 1.7-1.7 1.5 1.4-4.1 4.1-4.1-4.1 1.4-1.4 1.7 1.7V12c0-3.8-2.9-6.8-6.5-6.8-.7 0-1.5.1-2.2.4l-.2.1-.7-1.8.2-.1c1-.3 1.9-.5 2.9-.5 4.6 0 8.4 3.9 8.4 8.7v1.3Zm-8.4 5.5c.7 0 1.5-.1 2.2-.4l.1-.1.7 1.8-.2.1c-1 .3-1.9.5-2.9.5-4.6 0-8.4-3.9-8.4-8.7v-.7l-1.7 1.7-1.4-1.4 4.1-4.1 4.1 4-1.4 1.4-1.7-1.7v.8c0 3.8 2.9 6.8 6.5 6.8Z" fill="#1A1A1C"/></g><defs><clipPath id="ema"><path fill="#fff" d="M0 0h24v24H0z"/></clipPath></defs></symbol><symbol fill="none" viewBox="0 0 24 24" id="update_line" xmlns="http://www.w3.org/2000/svg"><g clip-path="url(#ena)"><path fill-rule="evenodd" clip-rule="evenodd" d="m20.5 13.7 2-2 1 1-3.8 3.8-3.8-3.8 1.1-1.1 2 2v-1.9c0-4-3.1-7.3-6.9-7.3-.8 0-1.6.2-2.4.5l-.5-1.4c1-.3 1.9-.5 2.9-.5 4.7 0 8.4 3.9 8.4 8.8v1.9Zm-15.4-2c0 4 3.1 7.3 6.9 7.3.533 0 1.067-.089 1.6-.178.267-.044.533-.089.8-.122l.5 1.4c-1 .3-1.9.5-2.9.5-4.6 0-8.4-4-8.4-8.8v-1.4l-2 2-1.1-1.1 3.8-3.8 3.9 3.7-1.1 1.1-2-2v1.4Z" fill="#1A1A1C"/></g><defs><clipPath id="ena"><path fill="#fff" d="M0 0h24v24H0z"/></clipPath></defs></symbol><symbol fill="none" viewBox="0 0 24 24" id="work_fill" xmlns="http://www.w3.org/2000/svg"><g clip-path="url(#eoa)"><path fill-rule="evenodd" clip-rule="evenodd" d="M17 3.5H7v3H2v3.7c2.3 1.5 4.8 2.4 7.5 2.8v-1.4h5V13c2.7-.4 5.2-1.3 7.5-2.8V6.5h-5v-3Zm-1.5 3h-7V5h7v1.5Zm5.7 5.6c-2.1 1.1-4.4 1.8-6.7 2.1v2.3h-5v-2.3C6.8 13.9 4.3 13 2 11.7v8.8h20v-8.8c-.06.03-.13.07-.206.113-.176.1-.385.217-.594.287Zm-10.4 3.1v-2.4h2.4v2.4h-2.4Z" fill="#1A1A1C"/></g><defs><clipPath id="eoa"><path fill="#fff" d="M0 0h24v24H0z"/></clipPath></defs></symbol><symbol fill="none" viewBox="0 0 24 24" id="work_line" xmlns="http://www.w3.org/2000/svg"><g clip-path="url(#epa)"><path d="M17 6.5v-3H7v3H2v14h20v-14h-5ZM8.5 5h7v1.5h-7V5Zm12 14h-17v-6.4c1.9.9 3.9 1.5 6 1.7v2.2h5v-2.2c2.1-.3 4.1-.8 6-1.7V19ZM13 15h-2v-2h2v2Zm7.5-4.1c-1.9 1-3.9 1.6-6 1.9v-1.3h-5v1.3c-2.1-.3-4.1-.9-6-1.9V8h17v2.9Z" fill="#1A1A1C"/></g><defs><clipPath id="epa"><path fill="#fff" d="M0 0h24v24H0z"/></clipPath></defs></symbol></svg>